<svg xmlns="http://www.w3.org/2000/svg" data-name="Layer 1" viewBox="0 0 30 37.5" x="0px" y="0px"><title>audio-sound-lound-speaker</title><path d="M13.5,7.135a1,1,0,0,0-1,0L5.734,11H2a1,1,0,0,0-1,1v6a1,1,0,0,0,1,1H5.734l6.77,3.868A1,1,0,0,0,14,22V8A1,1,0,0,0,13.5,7.135Z"/><path d="M16.374,11.221a1,1,0,0,0-.153,1.406,4.018,4.018,0,0,1,0,4.746,1,1,0,1,0,1.558,1.254,5.974,5.974,0,0,0,0-7.254A1,1,0,0,0,16.374,11.221Z"/><path d="M20.374,8.221a1,1,0,0,0-.153,1.406,8.973,8.973,0,0,1,0,10.746,1,1,0,1,0,1.558,1.254,11.067,11.067,0,0,0,0-13.254A1,1,0,0,0,20.374,8.221Z"/><path d="M25.779,5.373a1,1,0,0,0-1.558,1.254,13.983,13.983,0,0,1,0,16.746,1,1,0,1,0,1.558,1.254A16.077,16.077,0,0,0,25.779,5.373Z"/><text x="0" y="45" fill="#000000" font-size="5px" font-weight="bold" font-family="'Helvetica Neue', Helvetica, Arial-Unicode, Arial, Sans-serif">Created by Becris</text><text x="0" y="50" fill="#000000" font-size="5px" font-weight="bold" font-family="'Helvetica Neue', Helvetica, Arial-Unicode, Arial, Sans-serif">from the Noun Project</text></svg>