<svg xmlns="http://www.w3.org/2000/svg" version="1.1" viewBox="-5.0 -10.0 110.0 135.0">
 <path d="m72.621 33.301c4.6094 0 8.7852 1.8672 11.809 4.8906 3.0195 3.0195 4.8945 7.1953 4.8945 11.809 0 4.6094-1.8672 8.7852-4.8945 11.809-3.0195 3.0195-7.1953 4.8906-11.809 4.8906h-45.246c-4.6094 0-8.7852-1.8672-11.809-4.8906-3.0195-3.0195-4.8906-7.1953-4.8906-11.809 0-4.6094 1.8672-8.7852 4.8906-11.809 3.0195-3.0195 7.1992-4.8906 11.809-4.8906s8.7852 1.8672 11.809 4.8906c3.0195 3.0195 4.8906 7.1953 4.8906 11.809 0 4.6094-1.8672 8.7852-4.8906 11.809-0.097656 0.097656-0.20312 0.19922-0.30469 0.29688h22.238c-0.10156-0.097657-0.20703-0.19922-0.30469-0.29688-3.0195-3.0195-4.8945-7.1953-4.8945-11.809 0-4.6094 1.8672-8.7852 4.8945-11.809 3.0195-3.0195 7.1953-4.8906 11.809-4.8906zm-60.051-10.477h74.855c3.1836 0 6.0742 1.3008 8.168 3.3945s3.3945 4.9844 3.3945 8.168v31.223c0 3.1836-1.3008 6.0742-3.3945 8.168s-4.9844 3.3945-8.168 3.3945h-74.855c-3.1836 0-6.0742-1.3008-8.168-3.3945s-3.3945-4.9844-3.3945-8.168v-31.223c0-3.1836 1.3008-6.0742 3.3945-8.168s4.9844-3.3945 8.168-3.3945zm74.855 4.5938h-74.855c-1.9141 0-3.6562 0.78516-4.9219 2.0508-1.2656 1.2617-2.0508 3.0078-2.0508 4.9219v31.223c0 1.9141 0.78516 3.6562 2.0508 4.9219 1.2617 1.2656 3.0078 2.0508 4.9219 2.0508h74.855c1.9141 0 3.6562-0.78516 4.9219-2.0508 1.2656-1.2617 2.0508-3.0078 2.0508-4.9219v-31.223c0-1.9141-0.78516-3.6562-2.0508-4.9219-1.2617-1.2656-3.0078-2.0508-4.9219-2.0508zm-51.488 14.023c-2.1914-2.1914-5.2188-3.5469-8.5625-3.5469s-6.3711 1.3555-8.5625 3.5469-3.5469 5.2188-3.5469 8.5625 1.3555 6.3711 3.5469 8.5625 5.2188 3.5469 8.5625 3.5469 6.3711-1.3555 8.5625-3.5469 3.5469-5.2188 3.5469-8.5625-1.3555-6.3711-3.5469-8.5625zm45.242 0c-2.1914-2.1914-5.2188-3.5469-8.5625-3.5469s-6.3711 1.3555-8.5625 3.5469c-2.1914 2.1914-3.5469 5.2188-3.5469 8.5625s1.3555 6.3711 3.5469 8.5625c2.1914 2.1914 5.2188 3.5469 8.5625 3.5469s6.3672-1.3555 8.5625-3.5469c2.1914-2.1914 3.5469-5.2188 3.5469-8.5625s-1.3555-6.3711-3.5469-8.5625z"/>
<text x="0.0" y="117.5" font-size="5.0" font-weight="bold" font-family="Arbeit Regular, Helvetica, Arial-Unicode, Arial, Sans-serif" fill="#000000">Created by VERA</text><text x="0.0" y="122.5" font-size="5.0" font-weight="bold" font-family="Arbeit Regular, Helvetica, Arial-Unicode, Arial, Sans-serif" fill="#000000">from Noun Project</text></svg>