<svg xmlns="http://www.w3.org/2000/svg" data-name="Layer 1" viewBox="0 0 97.5 121.875" x="0px" y="0px"><title>Untitled-60</title><path d="M39.07,52.43H60.93a1.21,1.21,0,0,0,.9-2L50.9,38.26a1.25,1.25,0,0,0-1.8,0L38.17,50.4a1.21,1.21,0,0,0,.9,2Z" transform="translate(-1.25 -1.25)"/><rect x="36.61" y="53.61" width="24.28" height="7.28" rx="1.21" ry="1.21"/><path d="M50,1.25A48.75,48.75,0,1,0,98.75,50,48.75,48.75,0,0,0,50,1.25Zm0,77.88A29.13,29.13,0,1,1,79.13,50,29.17,29.17,0,0,1,50,79.13Z" transform="translate(-1.25 -1.25)"/><text x="0" y="112.5" fill="#000000" font-size="5px" font-weight="bold" font-family="'Helvetica Neue', Helvetica, Arial-Unicode, Arial, Sans-serif">Created by JohnnyZi</text><text x="0" y="117.5" fill="#000000" font-size="5px" font-weight="bold" font-family="'Helvetica Neue', Helvetica, Arial-Unicode, Arial, Sans-serif">from the Noun Project</text></svg>