<svg xmlns="http://www.w3.org/2000/svg" version="1.1" viewBox="-5.0 -10.0 110.0 135.0">
 <path d="m50 10c-22.102 0-40 17.898-40 40s17.898 40 40 40 40-17.898 40-40-17.898-40-40-40zm22.699 53.699h-15.598c-1.3008 0-2.3984-1.1016-2.3984-2.3984 0-1.3008 1.1016-2.3984 2.3984-2.3984h15.699c1.3008 0 2.3984 1.1016 2.3984 2.3984-0.097657 1.3984-1.1992 2.3984-2.5 2.3984zm-30.5-5.8984h-4.6992v4.6992c0 1.3008-1.1016 2.3984-2.3984 2.3984-1.3008 0-2.3984-1.1016-2.3984-2.3984v-4.6992h-4.7031c-1.3008 0-2.3984-1.1016-2.3984-2.3984 0-1.3008 1.1016-2.3984 2.3984-2.3984h4.6992v-4.6992c0-1.3008 1.1016-2.3984 2.3984-2.3984 1.3008 0 2.3984 1.1016 2.3984 2.3984v4.6992h4.6992c1.3008 0 2.3984 1.1016 2.3984 2.3984-0.09375 1.3984-1.0938 2.3984-2.3945 2.3984zm-14.898-17.602c-1.3008 0-2.3984-1.1016-2.3984-2.3984 0-1.3008 1.1016-2.3984 2.3984-2.3984h45.5c1.3008 0 2.3984 1.1016 2.3984 2.3984 0 1.3008-1.1016 2.3984-2.3984 2.3984zm47.801 9.4023c0 1.3008-1.1016 2.3984-2.3984 2.3984h-15.602c-1.3008 0-2.3984-1.1016-2.3984-2.3984 0-1.3008 1.1016-2.3984 2.3984-2.3984h15.699c1.1992 0.097656 2.3008 1.0977 2.3008 2.3984z"/>
<text x="0.0" y="117.5" font-size="5.0" font-weight="bold" font-family="Arbeit Regular, Helvetica, Arial-Unicode, Arial, Sans-serif" fill="#000000">Created by Rahmad romadoni</text><text x="0.0" y="122.5" font-size="5.0" font-weight="bold" font-family="Arbeit Regular, Helvetica, Arial-Unicode, Arial, Sans-serif" fill="#000000">from Noun Project</text></svg>