<svg xmlns="http://www.w3.org/2000/svg" version="1.1" viewBox="-5.0 -10.0 110.0 135.0">
 <path d="m10 22h7.6992c0.92969 4.5586 4.9688 8 9.8008 8 4.8281 0 8.8711-3.4414 9.8008-8h52.699c1.1016 0 2-0.89844 2-2s-0.89844-2-2-2h-52.699c-0.92969-4.5586-4.9688-8-9.8008-8-4.8281 0-8.8711 3.4414-9.8008 8h-7.6992c-1.1016 0-2 0.89844-2 2s0.89844 2 2 2zm17.5-8c3.3086 0 6 2.6914 6 6s-2.6914 6-6 6-6-2.6914-6-6 2.6914-6 6-6z"/>
 <path d="m90 78h-52.699c-0.92969-4.5586-4.9688-8-9.8008-8-4.8281 0-8.8711 3.4414-9.8008 8h-7.6992c-1.1016 0-2 0.89844-2 2s0.89844 2 2 2h7.6992c0.92969 4.5586 4.9688 8 9.8008 8 4.8281 0 8.8711-3.4414 9.8008-8h52.699c1.1016 0 2-0.89844 2-2s-0.89844-2-2-2zm-62.5 8c-3.3086 0-6-2.6914-6-6s2.6914-6 6-6 6 2.6914 6 6-2.6914 6-6 6z"/>
 <path d="m90 48h-7.6992c-0.92969-4.5586-4.9688-8-9.8008-8-4.8281 0-8.8711 3.4414-9.8008 8h-52.699c-1.1016 0-2 0.89844-2 2s0.89844 2 2 2h52.699c0.92969 4.5586 4.9688 8 9.8008 8 4.8281 0 8.8711-3.4414 9.8008-8h7.6992c1.1016 0 2-0.89844 2-2s-0.89844-2-2-2zm-17.5 8c-3.3086 0-6-2.6914-6-6s2.6914-6 6-6 6 2.6914 6 6-2.6914 6-6 6z"/>
<text x="0.0" y="117.5" font-size="5.0" font-weight="bold" font-family="Arbeit Regular, Helvetica, Arial-Unicode, Arial, Sans-serif" fill="#000000">Created by Khulqi Rosyid</text><text x="0.0" y="122.5" font-size="5.0" font-weight="bold" font-family="Arbeit Regular, Helvetica, Arial-Unicode, Arial, Sans-serif" fill="#000000">from Noun Project</text></svg>