<svg xmlns="http://www.w3.org/2000/svg" version="1.1" viewBox="-5.0 -10.0 110.0 135.0">
 <path d="m50 10c-22.102 0-40 17.898-40 40s17.898 40 40 40 40-17.898 40-40-17.898-40-40-40zm0 75.301c-19.5 0-35.301-15.801-35.301-35.301s15.801-35.301 35.301-35.301 35.301 15.801 35.301 35.301-15.801 35.301-35.301 35.301z"/>
 <path d="m44 48.102c-0.80078-1-2.3008-1.1992-3.3008-0.39844l-6.3984 5.1016-6.3984-5.1016c-1-0.80078-2.5-0.60156-3.3008 0.39844-0.80078 1-0.60156 2.5 0.39844 3.3008l5.5 4.3984-5.5 4.5c-1 0.80078-1.1992 2.3008-0.39844 3.3008 0.5 0.60156 1.1016 0.89844 1.8008 0.89844 0.5 0 1-0.19922 1.5-0.5l6.3984-5.1016 6.3984 5.1016c0.39844 0.30078 1 0.5 1.5 0.5 0.69922 0 1.3984-0.30078 1.8008-0.89844 0.80078-1 0.60156-2.5-0.39844-3.3008l-5.5-4.3984 5.5-4.3984c1-0.90234 1.1992-2.3047 0.39844-3.4023z"/>
 <path d="m75.102 37.801c0-1.3008-1.1016-2.3984-2.3984-2.3984l-45.402-0.003906c-1.3008 0-2.3984 1.1016-2.3984 2.3984 0 1.3008 1.1016 2.3984 2.3984 2.3984h45.5c1.1992 0.003907 2.3008-1.0938 2.3008-2.3945z"/>
 <path d="m72.699 47.301h-15.598c-1.3008 0-2.3984 1.1016-2.3984 2.3984 0 1.3008 1.1016 2.3984 2.3984 2.3984h15.699c1.3008 0 2.3984-1.1016 2.3984-2.3984-0.097657-1.3984-1.1992-2.3984-2.5-2.3984z"/>
 <path d="m72.699 59h-15.598c-1.3008 0-2.3984 1.1016-2.3984 2.3984 0 1.3008 1.1016 2.3984 2.3984 2.3984h15.699c1.3008 0 2.3984-1.1016 2.3984-2.3984-0.097657-1.2969-1.1992-2.3984-2.5-2.3984z"/>
<text x="0.0" y="117.5" font-size="5.0" font-weight="bold" font-family="Arbeit Regular, Helvetica, Arial-Unicode, Arial, Sans-serif" fill="#000000">Created by Rahmad romadoni</text><text x="0.0" y="122.5" font-size="5.0" font-weight="bold" font-family="Arbeit Regular, Helvetica, Arial-Unicode, Arial, Sans-serif" fill="#000000">from Noun Project</text></svg>