<svg xmlns="http://www.w3.org/2000/svg" data-name="Layer 1" viewBox="0 0 97.5 121.875" x="0px" y="0px"><title>Untitled-87</title><path d="M53.2,38.14a1.21,1.21,0,0,0-2,.94v5l-9-6a1.21,1.21,0,0,0-1.89,1V60.93a1.21,1.21,0,0,0,1.89,1l9-6v5a1.22,1.22,0,0,0,.69,1.1,1.18,1.18,0,0,0,.52.12,1.22,1.22,0,0,0,.77-.27L66.55,50.94a1.22,1.22,0,0,0,0-1.88Z" transform="translate(-1.25 -1.25)"/><path d="M50,1.25A48.75,48.75,0,1,0,98.75,50,48.75,48.75,0,0,0,50,1.25Zm0,77.88A29.13,29.13,0,1,1,79.13,50,29.17,29.17,0,0,1,50,79.13Z" transform="translate(-1.25 -1.25)"/><text x="0" y="112.5" fill="#000000" font-size="5px" font-weight="bold" font-family="'Helvetica Neue', Helvetica, Arial-Unicode, Arial, Sans-serif">Created by JohnnyZi</text><text x="0" y="117.5" fill="#000000" font-size="5px" font-weight="bold" font-family="'Helvetica Neue', Helvetica, Arial-Unicode, Arial, Sans-serif">from the Noun Project</text></svg>