<svg xmlns="http://www.w3.org/2000/svg" version="1.1" viewBox="-5.0 -10.0 110.0 135.0">
 <path d="m80.855 51.57v10.02h7.8203v-1.7266c0-3.8984-2.2891-5.5039-3.457-6.3203l-0.078125-0.058594c-0.8125-0.57031-1.3516-0.98047-1.3516-1.9062l0.003907-4.6602h2.9922l-0.003906 4.082 0.16016 0.097656c1.5977 1.1211 4.7344 3.3203 4.7344 8.7734v6.457c0 2.6328-0.89844 5.0469-2.3477 6.8086-1.5156 1.8438-3.6289 2.9805-5.9766 2.9805h-3.9922c-0.82812 0-1.5-0.67188-1.5-1.5l0.003906-11.438-0.003906-0.085938 0.003906-0.085938 0.007813-22.711c-0.007813-7.6953-3.1211-14.664-8.1641-19.703-5.0391-5.0391-12.008-8.1562-19.703-8.1562-7.6953 0-14.66 3.1211-19.703 8.1602-5.0391 5.0391-8.1602 12.008-8.1602 19.703v34.312c0 0.82812-0.67188 1.5-1.5 1.5h-3.9922c-2.3477 0-4.4609-1.1445-5.9766-2.9805-1.4492-1.7617-2.3477-4.1719-2.3477-6.8086v-6.457c0-5.4453 3.1289-7.6445 4.7266-8.7656 0.35547-0.25391 0.15625-9.1484 0.15625-10.797 0-10.156 4.1172-19.359 10.777-26.016 6.6562-6.6562 15.859-10.777 26.016-10.777 10.164 0.007812 19.363 4.125 26.02 10.777 6.5508 6.5508 10.641 15.559 10.773 25.52h-2.9922c-0.13672-9.1367-3.8945-17.395-9.8984-23.398-6.1172-6.1172-14.566-9.9062-23.891-9.9062-9.3359 0.007813-17.785 3.7891-23.902 9.9062-6.1133 6.1172-9.8984 14.566-9.8984 23.895v11.273c0 0.96484-0.57422 1.3711-1.4336 1.9727-1.168 0.82031-3.4492 2.4258-3.4492 6.3164v1.7266h7.8164v-21.293c0-8.5234 3.457-16.238 9.0391-21.82 5.582-5.582 13.301-9.0391 21.82-9.0391 8.5195 0 16.234 3.457 21.816 9.0391 5.5898 5.5898 9.0469 13.305 9.0469 21.82l-0.007813 11.277zm2.9414-6.6641 0.003906-3.1094h2.9922l-0.003907 3.1094zm-11.301 39.68c0-0.82813 0.67188-1.5 1.5-1.5s1.5 0.67187 1.5 1.5v5.6055c0 0.82812-0.67188 1.5-1.5 1.5s-1.5-0.67188-1.5-1.5zm-9.9492-2.7773c0-0.82812 0.67188-1.5 1.5-1.5s1.5 0.67188 1.5 1.5v11.16c0 0.82812-0.67188 1.5-1.5 1.5s-1.5-0.67188-1.5-1.5zm-9.9492-2.0273c0-0.82812 0.67188-1.5 1.5-1.5s1.5 0.67188 1.5 1.5v15.219c0 0.82812-0.67188 1.5-1.5 1.5s-1.5-0.67188-1.5-1.5zm-28.098 4.8047c0-0.82813 0.67188-1.5 1.5-1.5s1.5 0.67187 1.5 1.5v5.6055c0 0.82812-0.67188 1.5-1.5 1.5s-1.5-0.67188-1.5-1.5zm9.9492-2.7773c0-0.82812 0.67188-1.5 1.5-1.5s1.5 0.67188 1.5 1.5v11.16c0 0.82812-0.67188 1.5-1.5 1.5s-1.5-0.67188-1.5-1.5zm9.9492-2.0273c0-0.82812 0.67187-1.5 1.5-1.5 0.82812 0 1.5 0.67188 1.5 1.5v15.219c0 0.82812-0.67188 1.5-1.5 1.5-0.82813 0-1.5-0.67188-1.5-1.5zm36.457-15.191v8.5195h2.4922c1.4102 0 2.7109-0.71875 3.668-1.8828 1.0234-1.2422 1.6562-2.9805 1.6562-4.9062v-1.7305h-7.8203zm-69.539 0v1.7305c0 1.9297 0.63672 3.668 1.6562 4.9062 0.95703 1.1602 2.2578 1.8828 3.668 1.8828h2.4922v-8.5195zm35.16-12.535c1.6562 0 3.1875 0.54297 4.418 1.4609v-14.855h0.53516c1.2773 0 2.3711 0.75781 2.8164 1.9531 0.27734 0.74219 0.71484 1.4141 1.2656 1.9609 1.0039 1.0039 2.3867 1.6211 3.9219 1.6211 0.82812 0 1.5 0.67188 1.5 1.5 0 0.82813-0.67188 1.5-1.5 1.5-2.1094 0-4.043-0.76953-5.5391-2.0469v14.367c-0.011719 2.0273-0.83984 3.8672-2.1719 5.1992-1.3398 1.3398-3.1992 2.1719-5.2461 2.1719-2.0469 0-3.9062-0.83203-5.2461-2.1719-1.3398-1.3398-2.1719-3.1992-2.1719-5.2461s0.83203-3.9062 2.1719-5.2461c1.3398-1.3398 3.1992-2.1719 5.2461-2.1719zm3.125 4.293c-0.79687-0.79688-1.9062-1.293-3.125-1.293-1.2227 0-2.3281 0.49609-3.125 1.293-0.79687 0.79688-1.293 1.9062-1.293 3.125 0 1.2227 0.49609 2.3281 1.293 3.125 0.79688 0.79688 1.9062 1.293 3.125 1.293 1.2227 0 2.3281-0.49609 3.125-1.293 0.78516-0.78516 1.2773-1.8711 1.293-3.0703v-0.11719c-0.015625-1.1953-0.51172-2.2812-1.293-3.0703zm0.39453-28.402c0.52344 0 1.0391 0.015626 1.5547 0.046876v3.0078c-0.51172-0.039062-1.0312-0.058594-1.5547-0.058594-0.52344 0-1.0391 0.019532-1.5547 0.058594v-3.0078c0.51172-0.03125 1.0312-0.046876 1.5547-0.046876zm3.5547 0.26172c5.2305 0.77344 9.9062 3.2266 13.473 6.793l0.085937 0.089844c4.3086 4.3516 6.9727 10.34 6.9727 16.938 0 6.6523-2.6953 12.672-7.0547 17.027-4.3555 4.3555-10.379 7.0547-17.027 7.0547-6.6523 0-12.672-2.6953-17.027-7.0547-4.3555-4.3555-7.0547-10.379-7.0547-17.027 0-6.6445 2.6953-12.668 7.0547-17.023 3.5625-3.5703 8.2422-6.0195 13.469-6.7969v3.0391c-4.3984 0.74609-8.332 2.8555-11.352 5.8789-3.8164 3.8086-6.1758 9.082-6.1758 14.906s2.3594 11.09 6.1758 14.906 9.0859 6.1758 14.906 6.1758c5.8242 0 11.09-2.3594 14.906-6.1758s6.1758-9.0859 6.1758-14.906c0-5.7891-2.332-11.031-6.0977-14.836l-0.074219-0.070312c-3.0195-3.0195-6.9531-5.1289-11.352-5.8789v-3.0391z"/>
<text x="0.0" y="117.5" font-size="5.0" font-weight="bold" font-family="Arbeit Regular, Helvetica, Arial-Unicode, Arial, Sans-serif" fill="#000000">Created by Putri Creative</text><text x="0.0" y="122.5" font-size="5.0" font-weight="bold" font-family="Arbeit Regular, Helvetica, Arial-Unicode, Arial, Sans-serif" fill="#000000">from Noun Project</text></svg>