<svg width="72" height="72" viewBox="0 0 72 72" fill="none" xmlns="http://www.w3.org/2000/svg">
  <rect width="72" height="72" rx="16" fill="url(#gradient)" />
  <defs>
    <linearGradient id="gradient" x1="0%" y1="0%" x2="100%" y2="100%">
      <stop offset="0%" style="stop-color:#7C3AED;stop-opacity:1" />
      <stop offset="50%" style="stop-color:#3B82F6;stop-opacity:1" />
      <stop offset="100%" style="stop-color:#06B6D4;stop-opacity:1" />
    </linearGradient>
  </defs>

  <!-- Audio Waveform -->
  <g fill="white" opacity="0.9">
    <!-- Bass frequencies -->
    <rect x="12" y="42" width="3" height="8" rx="1.5" />
    <rect x="17" y="38" width="3" height="16" rx="1.5" />
    <rect x="22" y="45" width="3" height="2" rx="1" />

    <!-- Mid frequencies -->
    <rect x="27" y="32" width="3" height="28" rx="1.5" />
    <rect x="32" y="25" width="3" height="42" rx="1.5" />
    <rect x="37" y="30" width="3" height="32" rx="1.5" />
    <rect x="42" y="35" width="3" height="22" rx="1.5" />

    <!-- High frequencies -->
    <rect x="47" y="40" width="3" height="12" rx="1.5" />
    <rect x="52" y="44" width="3" height="4" rx="1.5" />
    <rect x="57" y="41" width="3" height="10" rx="1.5" />
  </g>

  <!-- ANC Symbol -->
  <circle cx="36" cy="20" r="8" fill="none" stroke="white" stroke-width="2" opacity="0.8" />
  <circle cx="36" cy="20" r="4" fill="white" opacity="0.6" />

  <!-- Sound waves -->
  <path d="M50 15 Q55 20 50 25" stroke="white" stroke-width="2" fill="none" opacity="0.5" />
  <path d="M53 13 Q60 20 53 27" stroke="white" stroke-width="2" fill="none" opacity="0.3" />
</svg>
