<svg width="96" height="96" viewBox="0 0 96 96" fill="none" xmlns="http://www.w3.org/2000/svg">
  <rect width="96" height="96" rx="21" fill="url(#gradient)" />
  <defs>
    <linearGradient id="gradient" x1="0%" y1="0%" x2="100%" y2="100%">
      <stop offset="0%" style="stop-color:#7C3AED;stop-opacity:1" />
      <stop offset="50%" style="stop-color:#3B82F6;stop-opacity:1" />
      <stop offset="100%" style="stop-color:#06B6D4;stop-opacity:1" />
    </linearGradient>
  </defs>
  <rect x="16" y="56" width="4" height="10" rx="2" fill="white" opacity="0.9" />
  <rect x="23" y="51" width="4" height="20" rx="2" fill="white" opacity="0.9" />
  <rect x="30" y="60" width="4" height="3" rx="1.5" fill="white" opacity="0.9" />
  <rect x="37" y="43" width="4" height="36" rx="2" fill="white" opacity="0.9" />
  <rect x="44" y="34" width="4" height="54" rx="2" fill="white" opacity="0.9" />
  <rect x="51" y="40" width="4" height="42" rx="2" fill="white" opacity="0.9" />
  <rect x="58" y="47" width="4" height="28" rx="2" fill="white" opacity="0.9" />
  <rect x="65" y="54" width="4" height="14" rx="2" fill="white" opacity="0.9" />
  <rect x="72" y="58" width="4" height="6" rx="2" fill="white" opacity="0.9" />
  <rect x="79" y="55" width="4" height="12" rx="2" fill="white" opacity="0.9" />
  <circle cx="48" cy="26" r="10" fill="none" stroke="white" stroke-width="2.5" opacity="0.8" />
  <circle cx="48" cy="26" r="5" fill="white" opacity="0.6" />
  <path d="M67 19 Q74 26 67 33" stroke="white" stroke-width="2.5" fill="none" opacity="0.5" />
  <path d="M71 16 Q80 26 71 36" stroke="white" stroke-width="2.5" fill="none" opacity="0.3" />
</svg>
