<svg width="512" height="512" viewBox="0 0 512 512" fill="none" xmlns="http://www.w3.org/2000/svg">
  <rect width="512" height="512" rx="112" fill="url(#gradient)" />
  <defs>
    <linearGradient id="gradient" x1="0%" y1="0%" x2="100%" y2="100%">
      <stop offset="0%" style="stop-color:#7C3AED;stop-opacity:1" />
      <stop offset="50%" style="stop-color:#3B82F6;stop-opacity:1" />
      <stop offset="100%" style="stop-color:#06B6D4;stop-opacity:1" />
    </linearGradient>
  </defs>
  <!-- Audio Waveform - Scaled for 512x512 -->
  <rect x="80" y="300" width="20" height="60" rx="10" fill="white" opacity="0.9" />
  <rect x="115" y="280" width="20" height="100" rx="10" fill="white" opacity="0.9" />
  <rect x="150" y="320" width="20" height="20" rx="10" fill="white" opacity="0.9" />
  <rect x="185" y="220" width="20" height="220" rx="10" fill="white" opacity="0.9" />
  <rect x="220" y="180" width="20" height="300" rx="10" fill="white" opacity="0.9" />
  <rect x="255" y="200" width="20" height="260" rx="10" fill="white" opacity="0.9" />
  <rect x="290" y="240" width="20" height="180" rx="10" fill="white" opacity="0.9" />
  <rect x="325" y="280" width="20" height="100" rx="10" fill="white" opacity="0.9" />
  <rect x="360" y="310" width="20" height="40" rx="10" fill="white" opacity="0.9" />
  <rect x="395" y="290" width="20" height="80" rx="10" fill="white" opacity="0.9" />
  <!-- ANC Symbol - Scaled -->
  <circle cx="256" cy="140" r="60" fill="none" stroke="white" stroke-width="12" opacity="0.8" />
  <circle cx="256" cy="140" r="30" fill="white" opacity="0.6" />
  <!-- Sound waves - Scaled -->
  <path d="M360 100 Q400 140 360 180" stroke="white" stroke-width="12" fill="none" opacity="0.5" />
  <path d="M380 80 Q440 140 380 200" stroke="white" stroke-width="12" fill="none" opacity="0.3" />
</svg>
