<svg xmlns="http://www.w3.org/2000/svg" version="1.1" viewBox="-5.0 -10.0 110.0 135.0">
 <path d="m81.25 34.531v-26c0-2.9844-2.1094-5.4062-4.6875-5.4062h-53.125c-2.5781 0-4.6875 2.4219-4.6875 5.4062v26l-10.434 9.6328c-0.10156 0.10156-0.125 0.16016-0.20703 0.25781-0.18359 0.24609-0.26562 0.53906-0.28516 0.83984-0.011719 0.050781-0.011719 43.801-0.011719 43.801 0 4.3086 3.5039 7.8125 7.8125 7.8125h68.75c4.3086 0 7.8125-3.5039 7.8125-7.8125v-43.75c-0.015625-0.44531-0.19141-0.80078-0.48047-1.1211-0.023437-0.027344-10.457-9.6602-10.457-9.6602zm0 4.2539c1.3516 1.2422 5.9297 5.5742 7.375 6.5273-1.4258 0.92969-6.0508 5.3086-7.375 6.5312zm-15.625 1.2617v-21.188c-0.007812-1.4023 1.418-1.5742 2.4688-1.8594l4.9375-1.3281c2.0039-0.47656 2.7852 2.4453 0.8125 3.0312l-5.0312 1.3438c-0.0625 0.015625-0.0625 25.375-0.0625 25.375-0.24609 8.25-12.246 8.2695-12.5 0-0.13281-4.6992 5.4219-7.8789 9.375-5.375zm-34.375-2.5469c1.1406 0 2.2031 0.32812 3.125 0.875v-21.188c0-0.70312 0.46875-1.3125 1.1406-1.5l21.875-6.25c0.95703-0.31641 2.0078 0.50781 1.9844 1.5v21.875c-0.25391 8.2617-12.246 8.2617-12.5 0-0.13672-4.6992 5.4219-7.8828 9.375-5.375v-14.422l-18.75 5.3438v25.391c-0.25391 8.2617-12.246 8.2617-12.5 0 0-3.4531 2.7969-6.25 6.25-6.25zm-17.879 6.25 5.3789-4.9648v13.059c-1.3516-1.2461-5.9258-5.5781-7.375-6.5312zm75.691 45.312c0 2.5859-2.1016 4.6875-4.6875 4.6875h-68.75c-2.5859 0-4.6875-2.1016-4.6875-4.6875v-40.184c4.5703 4.2266 14.812 13.672 19.469 17.965-3.5742 3.2969-10.805 9.9531-14.375 13.266-1.4609 1.3711 0.59375 3.6797 2.125 2.2812 8.2852-7.6562 20.41-18.82 28.672-26.469 1.7812-1.625 4.5625-1.625 6.3438 0 8.2695 7.6641 20.441 18.859 28.672 26.469 1.5 1.3789 3.6133-0.86719 2.125-2.2812-3.5898-3.3125-10.777-9.9648-14.375-13.266 4.6875-4.3203 14.871-13.715 19.469-17.965z"/>
 <path d="m60.938 75h-21.875c-2.5859 0-4.6875 2.1016-4.6875 4.6875v7.8125c0 2.5859 2.1016 4.6875 4.6875 4.6875h21.875c2.5859 0 4.6875-2.1016 4.6875-4.6875v-7.8125c0-2.5859-2.1016-4.6875-4.6875-4.6875zm-6.25 12.5h-9.375c-2.0508-0.035156-2.0547-3.0898 0-3.125h9.375c2.0508 0.035156 2.0547 3.0898 0 3.125zm3.125-4.6875h-15.625c-2.0508-0.03125-2.0586-3.0898 0-3.125h15.625c2.0508 0.03125 2.0586 3.0898 0 3.125z"/>
<text x="0.0" y="117.5" font-size="5.0" font-weight="bold" font-family="Arbeit Regular, Helvetica, Arial-Unicode, Arial, Sans-serif" fill="#000000">Created by LUTFI GANI AL ACHMAD</text><text x="0.0" y="122.5" font-size="5.0" font-weight="bold" font-family="Arbeit Regular, Helvetica, Arial-Unicode, Arial, Sans-serif" fill="#000000">from Noun Project</text></svg>