<svg xmlns="http://www.w3.org/2000/svg" version="1.1" viewBox="-5.0 -10.0 110.0 135.0">
 <path d="m50.09 58.559c7.2031 0 13.062-5.8594 13.062-13.062v-1.6641h-7.3125c-0.60547 0-1.1016-0.49609-1.1016-1.1016 0-0.61719 0.49609-1.1016 1.1016-1.1016h7.3125v-4.0195h-7.3125c-0.60547 0-1.1016-0.49609-1.1016-1.1016 0-0.61719 0.49609-1.1016 1.1016-1.1016h7.3125v-4.0195h-7.3125c-0.60547 0-1.1016-0.49609-1.1016-1.1016 0-0.61719 0.49609-1.1016 1.1016-1.1016h7.3125v-4.0195h-7.3125c-0.60547 0-1.1016-0.49609-1.1016-1.1016 0-0.61719 0.49609-1.1016 1.1016-1.1016h7.3125c-0.058594-7.1562-5.8945-12.961-13.062-12.961-7.1719 0-13.008 5.8047-13.062 12.965h7.2031c0.60547 0 1.1016 0.48438 1.1016 1.1016 0 0.60547-0.49609 1.1016-1.1016 1.1016h-7.2031v4.0195h7.2031c0.60547 0 1.1016 0.48438 1.1016 1.1016 0 0.60547-0.49609 1.1016-1.1016 1.1016h-7.2031v4.0195h7.2031c0.60547 0 1.1016 0.48438 1.1016 1.1016 0 0.60547-0.49609 1.1016-1.1016 1.1016h-7.2031v4.0195h7.2031c0.60547 0 1.1016 0.48438 1.1016 1.1016 0 0.60547-0.49609 1.1016-1.1016 1.1016h-7.2031v1.6641c0 7.1992 5.8594 13.059 13.062 13.059z"/>
 <path d="m70.926 44.703c-0.60547 0-1.1016 0.49609-1.1016 1.1016 0 9.4492-6.6758 17.367-15.551 19.285-0.011719 0-0.023438 0.011718-0.023438 0.011718-0.054688 0.011719-0.12109 0.023438-0.17578 0.042969h-0.011719c-0.13281 0.023438-0.26562 0.042969-0.38672 0.066407-0.72656 0.13281-1.4531 0.23047-2.2031 0.27344v-4.793c-0.45312 0.042969-0.91406 0.066406-1.3867 0.066406-0.47266 0-0.9375-0.023437-1.3867-0.066406v4.793c-0.75-0.042969-1.4766-0.14453-2.2031-0.27344-0.12109-0.023438-0.25391-0.042969-0.38672-0.066407h-0.011719c-0.054687-0.023437-0.12109-0.03125-0.17578-0.042969 0 0-0.011719-0.011718-0.023437-0.011718-8.8789-1.9141-15.551-9.8359-15.551-19.285 0-0.60547-0.49609-1.1016-1.1016-1.1016-0.60547 0-1.1016 0.49609-1.1016 1.1016 0 10.219 7.0273 18.82 16.496 21.254 0.71484 0.1875 1.4531 0.32812 2.2031 0.44141 1.0586 0.16406 2.1367 0.24219 3.2383 0.24219 1.1016 0 2.1797-0.078126 3.2383-0.24219 0.75-0.10938 1.4883-0.25391 2.2031-0.44141 9.4766-2.4336 16.504-11.035 16.504-21.254 0-0.60547-0.49609-1.1016-1.1016-1.1016z"/>
 <path d="m63.512 86.859-9.7031-6.0117-2.1367-1.3203c-0.48438-0.29688-1.0352-0.45312-1.5859-0.45312-0.55078 0-1.1016 0.15234-1.5977 0.45312l-2.1055 1.3125-0.066406 0.03125-9.6602 5.9922c-0.80469 0.49609-0.90234 1.3125-0.73828 1.9062 0.17188 0.58984 0.69141 1.2305 1.6367 1.2305h25.066c0.9375 0 1.4531-0.64062 1.6289-1.2344 0.16406-0.59375 0.066406-1.4102-0.73828-1.9062z"/>
 <path d="m52.84 77.652 0.48438 0.29688v-8.2266c-1.0234 0.14453-2.1133 0.21875-3.2383 0.21875-1.1133 0-2.2031-0.078125-3.2383-0.21875v8.2266l0.48438-0.29688c1.6992-1.043 3.8125-1.043 5.5078 0z"/>
 <path d="m68.977 38.266c0.60938 0 1.1016-0.49219 1.1016-1.1016v-18.648c0-0.60938-0.49219-1.1016-1.1016-1.1016-0.60937 0-1.1016 0.49219-1.1016 1.1016v18.645c0.003906 0.60938 0.49609 1.1055 1.1016 1.1055z"/>
 <path d="m77.199 24.723c-0.60938 0-1.1016 0.49219-1.1016 1.1016v4.0312c0 0.60938 0.49219 1.1016 1.1016 1.1016s1.1016-0.49219 1.1016-1.1016v-4.0312c0-0.60938-0.49219-1.1016-1.1016-1.1016z"/>
 <path d="m73.09 21.07c-0.60938 0-1.1016 0.49219-1.1016 1.1016v11.34c0 0.60938 0.49219 1.1016 1.1016 1.1016s1.1016-0.49219 1.1016-1.1016l-0.003906-11.34c0.003906-0.60938-0.49219-1.1016-1.0977-1.1016z"/>
 <path d="m14.582 17.414c-0.60938 0-1.1016 0.49219-1.1016 1.1016v18.645c0 0.60938 0.49219 1.1016 1.1016 1.1016s1.1016-0.49219 1.1016-1.1016v-18.645c0-0.60938-0.49219-1.1016-1.1016-1.1016z"/>
 <path d="m18.691 21.07c-0.60938 0-1.1016 0.49219-1.1016 1.1016v11.34c0 0.60938 0.49219 1.1016 1.1016 1.1016s1.1016-0.49219 1.1016-1.1016v-11.34c0-0.60938-0.49219-1.1016-1.1016-1.1016z"/>
 <path d="m85.418 17.414c-0.60938 0-1.1016 0.49219-1.1016 1.1016v18.645c0 0.60938 0.49219 1.1016 1.1016 1.1016s1.1016-0.49219 1.1016-1.1016v-18.645c0-0.60938-0.49219-1.1016-1.1016-1.1016z"/>
 <path d="m81.309 21.07c-0.60938 0-1.1016 0.49219-1.1016 1.1016v11.34c0 0.60938 0.49219 1.1016 1.1016 1.1016s1.1016-0.49219 1.1016-1.1016v-11.34c0-0.60938-0.49219-1.1016-1.1016-1.1016z"/>
 <path d="m31.023 38.266c0.60937 0 1.1016-0.49219 1.1016-1.1016l-0.003906-18.648c0-0.60938-0.49219-1.1016-1.1016-1.1016s-1.1016 0.49219-1.1016 1.1016v18.645c0.003906 0.60938 0.49609 1.1055 1.1055 1.1055z"/>
 <path d="m22.801 24.723c-0.60938 0-1.1016 0.49219-1.1016 1.1016v4.0312c0 0.60938 0.49219 1.1016 1.1016 1.1016s1.1016-0.49219 1.1016-1.1016v-4.0312c0-0.60938-0.49219-1.1016-1.1016-1.1016z"/>
 <path d="m26.91 21.07c-0.60938 0-1.1016 0.49219-1.1016 1.1016v11.34c0 0.60938 0.49219 1.1016 1.1016 1.1016s1.1016-0.49219 1.1016-1.1016v-11.34c0-0.60938-0.49219-1.1016-1.1016-1.1016z"/>
<text x="0.0" y="117.5" font-size="5.0" font-weight="bold" font-family="Arbeit Regular, Helvetica, Arial-Unicode, Arial, Sans-serif" fill="#000000">Created by Irfan ms</text><text x="0.0" y="122.5" font-size="5.0" font-weight="bold" font-family="Arbeit Regular, Helvetica, Arial-Unicode, Arial, Sans-serif" fill="#000000">from Noun Project</text></svg>