<svg xmlns="http://www.w3.org/2000/svg" version="1.1" viewBox="-5.0 -10.0 110.0 135.0">
 <path d="m50 10c-20.434 0-37 16.566-37 37v17.254c-1.8125 1.2656-3 3.3672-3 5.7461v8c0 3.8672 3.1328 7 7 7h3c0 2.7617 2.2383 5 5 5h4c2.7617 0 5-2.2383 5-5v-22c0-2.7617-2.2383-5-5-5h-4c-1.125 0-2.1641 0.37109-3 1v-7c0-15.465 12.535-28 28-28s28 12.535 28 28v7c-0.83594-0.62891-1.875-1-3-1h-4c-2.7617 0-5 2.2383-5 5v22c0 2.7617 2.2383 5 5 5h4c2.7617 0 5-2.2383 5-5h3c3.8672 0 7-3.1328 7-7v-8c0-2.3789-1.1875-4.4805-3-5.7461v-17.254c0-20.434-16.566-37-37-37zm-33 53c-0.69531 0-1.3672 0.10156-2 0.28906v-4.2891h5v4zm3-6h-5v-10c0-19.328 15.672-35 35-35s35 15.672 35 35v10h-5v-10c0-16.57-13.43-30-30-30s-30 13.43-30 30zm60 2h5v4.2891c-0.63281-0.1875-1.3047-0.28906-2-0.28906h-3zm0 24v-18h3c2.7617 0 5 2.2383 5 5v8c0 2.7617-2.2383 5-5 5zm-5-23c1.6562 0 3 1.3438 3 3v22c0 1.6562-1.3438 3-3 3h-4c-1.6562 0-3-1.3438-3-3v-22c0-1.6562 1.3438-3 3-3zm-25-41c12.281 0 22.715 7.9062 26.492 18.906-5.0469-9.4648-15.016-15.906-26.492-15.906s-21.445 6.4414-26.492 15.906c3.7773-11 14.211-18.906 26.492-18.906zm-25 69c-1.6562 0-3-1.3438-3-3v-22c0-1.6562 1.3438-3 3-3h4c1.6562 0 3 1.3438 3 3v22c0 1.6562-1.3438 3-3 3zm-8-23h3v18h-3c-2.7617 0-5-2.2383-5-5v-8c0-2.7617 2.2383-5 5-5z" fill-rule="evenodd"/>
 <path d="m47.504 64.289c-1.7148-1.7188-4.5-1.7188-6.2148 0-1.7188 1.7148-1.7188 4.5 0 6.2148l2.4922 2.4961-2.4922 2.4961c-1.7188 1.7148-1.7188 4.5 0 6.2148 1.7148 1.7188 4.5 1.7188 6.2148 0l2.4961-2.4922 2.4961 2.4922c1.7148 1.7188 4.5 1.7188 6.2148 0 1.7188-1.7148 1.7188-4.5 0-6.2148l-2.4922-2.4961 2.4922-2.4961c1.7188-1.7148 1.7188-4.5 0-6.2148-1.7148-1.7188-4.5-1.7188-6.2148 0l-2.4961 2.4922zm-4.8008 1.4141c0.93359-0.9375 2.4531-0.9375 3.3867 0l3.2031 3.1992c0.39062 0.39062 1.0234 0.39062 1.4141 0l3.2031-3.1992c0.93359-0.9375 2.4531-0.9375 3.3867 0 0.9375 0.93359 0.9375 2.4531 0 3.3867l-3.1992 3.2031c-0.39062 0.39062-0.39062 1.0234 0 1.4141l3.1992 3.2031c0.9375 0.93359 0.9375 2.4531 0 3.3867-0.93359 0.9375-2.4531 0.9375-3.3867 0l-3.2031-3.1992c-0.1875-0.1875-0.44141-0.29297-0.70703-0.29297s-0.51953 0.10547-0.70703 0.29297l-3.2031 3.1992c-0.93359 0.9375-2.4531 0.9375-3.3867 0-0.9375-0.93359-0.9375-2.4531 0-3.3867l3.1992-3.2031c0.39062-0.39062 0.39062-1.0234 0-1.4141l-3.1992-3.2031c-0.9375-0.93359-0.9375-2.4531 0-3.3867z" fill-rule="evenodd"/>
<text x="0.0" y="117.5" font-size="5.0" font-weight="bold" font-family="Arbeit Regular, Helvetica, Arial-Unicode, Arial, Sans-serif" fill="#000000">Created by HideMaru</text><text x="0.0" y="122.5" font-size="5.0" font-weight="bold" font-family="Arbeit Regular, Helvetica, Arial-Unicode, Arial, Sans-serif" fill="#000000">from Noun Project</text></svg>