<svg xmlns="http://www.w3.org/2000/svg" version="1.1" viewBox="-5.0 -10.0 110.0 135.0">
 <path d="m80.188 38.93c2.6797 1.2812 4.5469 3.3789 5.5938 5.7109 0.69922 1.3984 1.0508 2.9141 1.0508 4.5469 0.11719 1.5156-0.23438 3.0312-0.81641 4.5469-0.93359 2.5625-2.9141 4.8945-5.8281 6.4102v16.898c0 1.0508-0.35156 1.9805-1.0508 2.6797-0.35156 0.23438-0.69922 0.58203-1.1641 0.69922-0.35156 0.23438-0.93359 0.35156-1.3984 0.35156-0.69922 0-1.5156-0.23438-2.2148-0.93359-4.5469-4.4297-8.9727-7.8086-13.172-10.488h-0.11719c-5.0117-3.1484-9.5586-5.0117-13.402-6.1758h-3.4961l-16.316 28.207c6.6445 3.4961 14.102 5.5938 22.145 5.5938 12.938 0 24.707-5.2461 33.215-13.754 8.5078-8.5078 13.754-20.281 13.754-33.215 0-12.938-5.2461-24.707-13.754-33.215-2.5625-2.4492-5.3594-4.7773-8.3906-6.6445l-10.723 18.531c3.2617-2.2148 6.7617-4.8945 10.258-8.3906 0.69922-0.69922 1.6328-1.0508 2.5625-1.0508 0.46484 0 0.93359 0.11719 1.2812 0.23438l0.11719 0.11719c0.35156 0.11719 0.69922 0.35156 0.93359 0.58203l0.11719 0.11719c0.46484 0.58203 0.81641 1.2812 0.81641 2.2148v16.434zm-39.512 24.242h-11.188c-1.5156 0-2.7969-0.69922-3.6133-1.75-0.46484-0.69922-0.93359-1.5156-1.0508-2.4492h-6.293c-0.81641 0-1.5156-0.23438-2.0977-0.69922-0.58203-0.58203-0.81641-1.2812-0.81641-2.2148v-12.586c0-0.93359 0.23437-1.6328 0.81641-2.0977 0.58203-0.58203 1.2812-0.81641 2.0977-0.81641h6.293c0.23438-0.93359 0.58203-1.75 1.1641-2.4492 0.93359-1.0508 2.2148-1.75 3.7305-1.75h18.066c3.1484-0.93359 6.875-2.2148 10.84-4.4297l13.52-23.309c-6.6445-3.4961-14.102-5.5938-22.145-5.5938-12.938 0-24.707 5.2461-33.215 13.754-8.5078 8.5078-13.754 20.281-13.754 33.215 0 12.938 5.2461 24.707 13.754 33.215 2.5625 2.4492 5.3594 4.7773 8.3906 6.6445l15.5-26.691zm20.164-28.906-11.422 19.695v6.5273c3.8477 1.2812 8.3906 3.2617 13.285 6.1758l0.11719 0.11719c4.3125 2.6797 8.9727 6.1758 13.637 10.84 0.11719 0 0.11719 0.11719 0.11719 0.11719l0.11719-0.11719c0.11719 0 0.23438 0 0.23438-0.11719 0.11719-0.11719 0.23438-0.23438 0.23438-0.46484v-54.547-0.11719c-0.11719-0.11719-0.11719-0.11719-0.23438-0.11719-0.11719 0-0.23438 0.11719-0.46484 0.23438-5.2461 5.1289-10.371 8.8594-15.152 11.539l-0.46484 0.23438zm-14.453 25.059-0.46484 0.81641h0.46484zm-3.9609 0.81641 3.9609-6.9922v-13.754h-16.668c-0.58203 0-1.0508 0.23438-1.2812 0.69922-0.46484 0.46484-0.69922 1.1641-0.69922 1.9805v15.383c0 0.81641 0.23438 1.6328 0.58203 2.0977 0.23438 0.35156 0.69922 0.46484 1.1641 0.46484l12.938 0.11719zm6.9922-12.238 6.5273-11.188c-2.332 0.93359-4.5469 1.75-6.5273 2.332v8.8594zm0.58203-47.902c13.754 0 26.34 5.5938 35.316 14.684 9.0898 8.9727 14.684 21.562 14.684 35.316s-5.5938 26.34-14.684 35.316c-8.9727 9.0898-21.562 14.684-35.316 14.684s-26.34-5.5938-35.316-14.684c-9.0898-8.9727-14.684-21.562-14.684-35.316s5.5938-26.34 14.684-35.316c8.9727-9.0898 21.562-14.684 35.316-14.684zm30.188 56.527c1.3984-1.0508 2.4492-2.4492 3.0312-3.8477 0.35156-1.1641 0.58203-2.332 0.58203-3.4961 0-1.1641-0.35156-2.2148-0.81641-3.3789-0.58203-1.2812-1.5156-2.4492-2.7969-3.2617zm-55.477-0.69922v-12.238h-6.0625v12.238zm-6.1758 0.11719v0zm0.11719-12.473zm-0.11719 0h0.11719z"/>
<text x="0.0" y="117.5" font-size="5.0" font-weight="bold" font-family="Arbeit Regular, Helvetica, Arial-Unicode, Arial, Sans-serif" fill="#000000">Created by popcornarts</text><text x="0.0" y="122.5" font-size="5.0" font-weight="bold" font-family="Arbeit Regular, Helvetica, Arial-Unicode, Arial, Sans-serif" fill="#000000">from Noun Project</text></svg>