<svg xmlns="http://www.w3.org/2000/svg" version="1.1" viewBox="-5.0 -10.0 110.0 135.0">
 <path d="m76.867 16.305h-4.9102v-1.9414c0-1.7109-1.3906-3.1016-3.1016-3.1016h-2.6836c-1.7109 0-3.1016 1.3906-3.1016 3.1016v2.2734h-2.7852l-0.003906-2.2734c0-1.7109-1.3906-3.1016-3.1016-3.1016h-2.6836c-1.7109 0-3.1016 1.3906-3.1016 3.1016v2.2734h-2.7852l-0.003906-2.2734c0-1.7109-1.3906-3.1016-3.1016-3.1016h-2.6836c-1.7109 0-3.1016 1.3906-3.1016 3.1016v2.2734h-2.7852l-0.003906-2.2734c0-1.7109-1.3906-3.1016-3.1016-3.1016h-2.6836c-1.7109 0-3.1016 1.3906-3.1016 3.1016v1.9414h-4.9102c-2.4414 0-4.4258 1.9844-4.4258 4.4258v63.586c0 2.4414 1.9844 4.4258 4.4258 4.4258h53.73c2.4414 0 4.4258-1.9844 4.4258-4.4258l0.003907-63.586c0-2.4414-1.9883-4.4258-4.4258-4.4258zm-11.578-1.9414c0-0.48438 0.39453-0.87891 0.87891-0.87891h2.6836c0.48438 0 0.87891 0.39453 0.87891 0.87891v6.7656c0 0.48438-0.39453 0.87891-0.87891 0.87891h-2.6836c-0.48438 0-0.87891-0.39453-0.87891-0.87891zm-11.672 0c0-0.48438 0.39453-0.87891 0.87891-0.87891h2.6836c0.48437 0 0.87891 0.39453 0.87891 0.87891v6.7656c0 0.48438-0.39453 0.87891-0.87891 0.87891h-2.6836c-0.48438 0-0.87891-0.39453-0.87891-0.87891zm-11.676 0c0-0.48438 0.39453-0.87891 0.87891-0.87891h2.6836c0.48438 0 0.87891 0.39453 0.87891 0.87891v6.7656c0 0.48438-0.39453 0.87891-0.87891 0.87891h-2.6836c-0.48437 0-0.87891-0.39453-0.87891-0.87891zm-11.676 0c0-0.48438 0.39453-0.87891 0.87891-0.87891h2.6836c0.48438 0 0.87891 0.39453 0.87891 0.87891v6.7656c0 0.48438-0.39453 0.87891-0.87891 0.87891h-2.6836c-0.48438 0-0.87891-0.39453-0.87891-0.87891zm48.805 69.953c0 1.2148-0.98828 2.2031-2.2031 2.2031h-53.734c-1.2148 0-2.2031-0.98828-2.2031-2.2031v-63.586c0-1.2148 0.98828-2.2031 2.2031-2.2031h4.9102v2.6016c0 1.7109 1.3906 3.1016 3.1016 3.1016h2.6836c1.7109 0 3.1016-1.3906 3.1016-3.1016v-2.2734h2.7852v2.2734c0 1.7109 1.3906 3.1016 3.1016 3.1016h2.6836c1.7109 0 3.1016-1.3906 3.1016-3.1016v-2.2734h2.7852v2.2734c0 1.7109 1.3906 3.1016 3.1016 3.1016h2.6836c1.7109 0 3.1016-1.3906 3.1016-3.1016v-2.2734h2.7852v2.2734c0 1.7109 1.3906 3.1016 3.1016 3.1016h2.6836c1.7109 0 3.1016-1.3906 3.1016-3.1016v-2.6016h4.9102c1.2148 0 2.2031 0.98828 2.2031 2.2031z"/>
 <path d="m61.785 48.801v-7.6094c0-0.37891-0.19531-0.73438-0.51562-0.9375-0.32422-0.20312-0.72656-0.23047-1.0703-0.066406l-19.684 9.3125h-6.9336c-0.61328 0-1.1094 0.49609-1.1094 1.1094v9.8867c0 0.61328 0.49609 1.1094 1.1094 1.1094h6.9336l19.684 9.3125c0.15234 0.070312 0.3125 0.10547 0.47656 0.10547 0.20703 0 0.41406-0.058594 0.59375-0.17188 0.32031-0.20312 0.51562-0.55859 0.51562-0.9375v-7.6094c3.25-0.52734 5.7422-3.3477 5.7422-6.75 0-3.3984-2.4922-6.2188-5.7422-6.7539zm-22.129 10.586h-4.9609v-7.6641h4.9609zm19.906 8.7773-17.688-8.3672 0.003906-8.4805 17.688-8.3672zm2.2227-8.1289v-8.9609c2.0156 0.5 3.5195 2.3125 3.5195 4.4805 0 2.168-1.5039 3.9805-3.5195 4.4805z"/>
<text x="0.0" y="117.5" font-size="5.0" font-weight="bold" font-family="Arbeit Regular, Helvetica, Arial-Unicode, Arial, Sans-serif" fill="#000000">Created by iconcheese</text><text x="0.0" y="122.5" font-size="5.0" font-weight="bold" font-family="Arbeit Regular, Helvetica, Arial-Unicode, Arial, Sans-serif" fill="#000000">from Noun Project</text></svg>