<svg xmlns="http://www.w3.org/2000/svg" version="1.1" viewBox="-5.0 -10.0 110.0 135.0">
 <path d="m40.328 59.484c0-0.93359 0.75781-1.6953 1.6953-1.6953 0.93359 0 1.6953 0.75781 1.6953 1.6953v17.871c0 0.93359-0.75781 1.6953-1.6953 1.6953-0.93359 0-1.6953-0.75781-1.6953-1.6953zm-30.121-6.4414c-1.75 0.33203-3.3164 1.1875-4.5312 2.4023-1.5742 1.5703-2.5508 3.7422-2.5508 6.1328v13.676c0 2.3906 0.97656 4.5625 2.5508 6.1367s3.7461 2.5508 6.1367 2.5508h6.9922c0.93359 0 1.6953-0.75781 1.6953-1.6953v-27.66c0-0.93359-0.75781-1.6953-1.6953-1.6953h-5.1992c0.76172-9.1133 4.8516-17.25 11.035-23.215 6.5781-6.3438 15.527-10.23 25.359-10.23s18.781 3.8867 25.359 10.23c6.1836 5.9648 10.273 14.102 11.035 23.215h-5.1992c-0.93359 0-1.6953 0.75781-1.6953 1.6953v27.664c0 0.93359 0.75781 1.6953 1.6953 1.6953h6.9922c2.3906 0 4.5625-0.97656 6.1367-2.5508s2.5508-3.7461 2.5508-6.1367v-13.676c0-2.3906-0.97656-4.5625-2.5508-6.1367-1.2109-1.2109-2.7812-2.0703-4.5312-2.4023-0.73828-10.133-5.2383-19.188-12.094-25.801-7.1875-6.9375-16.965-11.188-27.699-11.188s-20.512 4.25-27.699 11.188c-6.8555 6.6133-11.355 15.664-12.094 25.801zm77.98 3.2383c1.457 0 2.7812 0.59766 3.7422 1.5586 0.96094 0.96094 1.5586 2.2852 1.5586 3.7422v13.676c0 1.457-0.59766 2.7812-1.5586 3.7422-0.96094 0.96094-2.2852 1.5586-3.7422 1.5586h-5.3008v-24.277zm-71.074 0v24.277l-5.3008-0.003906c-1.457 0-2.7812-0.59766-3.7422-1.5586-0.96094-0.96094-1.5586-2.2852-1.5586-3.7422v-13.676c0-1.457 0.59766-2.7812 1.5586-3.7422 0.96094-0.96094 2.2852-1.5586 3.7422-1.5586zm47.148 7.668c0-0.93359 0.75781-1.6953 1.6953-1.6953s1.6953 0.75781 1.6953 1.6953v8.9336c0 0.93359-0.75781 1.6953-1.6953 1.6953s-1.6953-0.75781-1.6953-1.6953zm-7.9766-4.4648c0-0.93359 0.75781-1.6953 1.6953-1.6953 0.93359 0 1.6953 0.75781 1.6953 1.6953v17.871c0 0.93359-0.75781 1.6953-1.6953 1.6953-0.93359 0-1.6953-0.75781-1.6953-1.6953zm-7.9805 4.4648c0-0.93359 0.75781-1.6953 1.6953-1.6953 0.93359 0 1.6953 0.75781 1.6953 1.6953v8.9336c0 0.93359-0.75781 1.6953-1.6953 1.6953s-1.6953-0.75781-1.6953-1.6953zm-15.953 0c0-0.93359 0.75781-1.6953 1.6953-1.6953 0.93359 0 1.6953 0.75781 1.6953 1.6953v8.9336c0 0.93359-0.75781 1.6953-1.6953 1.6953s-1.6953-0.75781-1.6953-1.6953z" fill-rule="evenodd"/>
<text x="0.0" y="117.5" font-size="5.0" font-weight="bold" font-family="Arbeit Regular, Helvetica, Arial-Unicode, Arial, Sans-serif" fill="#000000">Created by Sinta Maulana</text><text x="0.0" y="122.5" font-size="5.0" font-weight="bold" font-family="Arbeit Regular, Helvetica, Arial-Unicode, Arial, Sans-serif" fill="#000000">from Noun Project</text></svg>