<svg xmlns="http://www.w3.org/2000/svg" version="1.1" viewBox="-5.0 -10.0 110.0 135.0">
 <path d="m73.332 4.168h-1.9805c-1.1523 0-2.082 0.93359-2.082 2.082 0 1.1523 0.93359 2.082 2.082 2.082h1.9805c10.109 0 18.332 8.2227 18.332 18.332v46.668c0 10.109-8.2227 18.332-18.332 18.332l-46.664 0.003907c-10.109 0-18.332-8.2227-18.332-18.332l-0.003907-46.668c0-10.109 8.2227-18.332 18.332-18.332h36.355c1.1523 0 2.082-0.93359 2.082-2.082 0-1.1523-0.93359-2.082-2.082-2.082l-36.352-0.003906c-12.406 0-22.5 10.094-22.5 22.5v46.668c0 12.406 10.094 22.5 22.5 22.5h46.668c12.406 0 22.5-10.094 22.5-22.5l-0.003907-46.668c0-12.406-10.094-22.5-22.5-22.5z"/>
 <path d="m21.473 39.762v-15.809c-0.046875-2.7344-4.1211-2.7422-4.168 0v15.809c0.046874 2.7344 4.1211 2.7422 4.168 0z"/>
 <path d="m31.371 39.762v-15.809c-0.046875-2.7344-4.1211-2.7422-4.168 0v15.809c0.046875 2.7344 4.1211 2.7422 4.168 0z"/>
 <path d="m69.898 23.871h-4.0234c-2.1406 0-3.8789 1.7422-3.8789 3.8789v2.0273h-20.34c-2.7227 0.042968-2.75 4.1172 0 4.168h20.34v2.0195c0 2.1406 1.7422 3.8789 3.8789 3.8789h4.0234c2.1406 0 3.8789-1.7422 3.8789-3.8789v-2.0195h9.082c1.1523 0 2.082-0.93359 2.082-2.082 0-1.1523-0.93359-2.082-2.082-2.082h-9.082v-2.0273c0-2.1406-1.7422-3.8789-3.8789-3.8789zm-0.28516 7.9609c0.007813 0.14062-0.007812 3.7266 0 3.8477h-3.4492v-7.6406h3.4492z"/>
 <path d="m82.863 66.41h-41.207c-2.7266 0.042969-2.75 4.1211 0 4.168h41.207c2.7266-0.042969 2.75-4.1211 0-4.168z"/>
 <path d="m17.305 72.699c-0.10156 2.9844 3.4648 5.0469 6 3.4648l8.9336-5.1602c2.6367-1.4062 2.6367-5.5234 0-6.9258l-8.9336-5.1562c-2.5273-1.582-6.1016 0.47656-6 3.4609v10.316zm4.168-10.027 8.4336 4.8672-8.4336 4.8711z"/>
<text x="0.0" y="117.5" font-size="5.0" font-weight="bold" font-family="Arbeit Regular, Helvetica, Arial-Unicode, Arial, Sans-serif" fill="#000000">Created by Selot Lo</text><text x="0.0" y="122.5" font-size="5.0" font-weight="bold" font-family="Arbeit Regular, Helvetica, Arial-Unicode, Arial, Sans-serif" fill="#000000">from Noun Project</text></svg>