<svg xmlns="http://www.w3.org/2000/svg" version="1.1" viewBox="-5.0 -10.0 110.0 135.0">
 <path d="m30 61c0 3.3125 2.6875 6 6 6s6-2.6875 6-6v-28c0-3.3125-2.6875-6-6-6s-6 2.6875-6 6zm6 4c-2.2109 0-4-1.7891-4-4v-28c0-2.2109 1.7891-4 4-4s4 1.7891 4 4v28c0 2.2109-1.7891 4-4 4z" fill-rule="evenodd"/>
 <path d="m58 67c-3.3125 0-6-2.6875-6-6v-28c0-3.3125 2.6875-6 6-6s6 2.6875 6 6v28c0 3.3125-2.6875 6-6 6zm-4-6c0 2.2109 1.7891 4 4 4s4-1.7891 4-4v-28c0-2.2109-1.7891-4-4-4s-4 1.7891-4 4z" fill-rule="evenodd"/>
 <path d="m23 10c-7.1797 0-13 5.8203-13 13v48c0 5.1367 2.9805 9.582 7.3086 11.691 2.1094 4.3281 6.5547 7.3086 11.691 7.3086h48c7.1797 0 13-5.8203 13-13v-48c0-5.1367-2.9805-9.582-7.3086-11.691-2.1094-4.3281-6.5547-7.3086-11.691-7.3086zm60.715 10.289c0.1875 0.875 0.28516 1.7812 0.28516 2.7109v48c0 7.1797-5.8203 13-13 13h-48c-0.92969 0-1.8359-0.097656-2.7109-0.28516 2.0117 2.6055 5.1641 4.2852 8.7109 4.2852h48c6.0742 0 11-4.9258 11-11v-48c0-3.5469-1.6797-6.6992-4.2852-8.7109zm-71.715 2.7109c0-6.0742 4.9258-11 11-11h48c6.0742 0 11 4.9258 11 11v48c0 6.0742-4.9258 11-11 11h-48c-6.0742 0-11-4.9258-11-11z" fill-rule="evenodd"/>
<text x="0.0" y="117.5" font-size="5.0" font-weight="bold" font-family="Arbeit Regular, Helvetica, Arial-Unicode, Arial, Sans-serif" fill="#000000">Created by HideMaru</text><text x="0.0" y="122.5" font-size="5.0" font-weight="bold" font-family="Arbeit Regular, Helvetica, Arial-Unicode, Arial, Sans-serif" fill="#000000">from Noun Project</text></svg>