<svg xmlns="http://www.w3.org/2000/svg" data-name="Layer 1" viewBox="0 0 97.5 121.875" x="0px" y="0px"><title>Untitled-91</title><path d="M50,1.25A48.75,48.75,0,1,0,98.75,50,48.75,48.75,0,0,0,50,1.25Zm0,77.88A29.13,29.13,0,1,1,79.13,50,29.17,29.17,0,0,1,50,79.13Z" transform="translate(-1.25 -1.25)"/><path d="M63.9,48.91,42,38a1.22,1.22,0,0,0-1.76,1.09V60.93A1.21,1.21,0,0,0,42,62L63.9,51.09a1.21,1.21,0,0,0,0-2.17Z" transform="translate(-1.25 -1.25)"/><text x="0" y="112.5" fill="#000000" font-size="5px" font-weight="bold" font-family="'Helvetica Neue', Helvetica, Arial-Unicode, Arial, Sans-serif">Created by JohnnyZi</text><text x="0" y="117.5" fill="#000000" font-size="5px" font-weight="bold" font-family="'Helvetica Neue', Helvetica, Arial-Unicode, Arial, Sans-serif">from the Noun Project</text></svg>