<svg xmlns="http://www.w3.org/2000/svg" version="1.1" viewBox="-5.0 -10.0 110.0 135.0">
 <path d="m50 12c-20.988 0-38 17.012-38 38s17.012 38 38 38 38-17.012 38-38-17.012-38-38-38zm-40 38c0-22.09 17.91-40 40-40s40 17.91 40 40-17.91 40-40 40-40-17.91-40-40zm33.934-21.285c-3.3047-2.3984-7.9336-0.035156-7.9336 4.0469v34.477c0 4.0859 4.6289 6.4453 7.9336 4.0508l23.777-17.242c2.7539-1.9961 2.7539-6.0977 0-8.0938zm-9.9336 4.0469c0-5.7188 6.4805-9.0234 11.109-5.668l23.777 17.238c3.8555 2.7969 3.8555 8.5391 0 11.336l-23.777 17.238c-4.6289 3.3555-11.109 0.050781-11.109-5.668z" fill-rule="evenodd"/>
<text x="0.0" y="117.5" font-size="5.0" font-weight="bold" font-family="Arbeit Regular, Helvetica, Arial-Unicode, Arial, Sans-serif" fill="#000000">Created by HideMaru</text><text x="0.0" y="122.5" font-size="5.0" font-weight="bold" font-family="Arbeit Regular, Helvetica, Arial-Unicode, Arial, Sans-serif" fill="#000000">from Noun Project</text></svg>