<svg xmlns="http://www.w3.org/2000/svg" version="1.1" viewBox="-5.0 -10.0 110.0 135.0">
 <path d="m50 12c-20.988 0-38 17.012-38 38s17.012 38 38 38 38-17.012 38-38-17.012-38-38-38zm-40 38c0-22.09 17.91-40 40-40s40 17.91 40 40-17.91 40-40 40-40-17.91-40-40zm51-16c0-2.7617 2.2383-5 5-5s5 2.2383 5 5v32c0 2.7617-2.2383 5-5 5s-5-2.2383-5-5zm5-3c-1.6562 0-3 1.3438-3 3v32c0 1.6562 1.3438 3 3 3s3-1.3438 3-3v-32c0-1.6562-1.3438-3-3-3zm-27.082 3.6406c-3.3086-2.375-7.918-0.011719-7.918 4.0625v22.594c0 4.0742 4.6094 6.4375 7.918 4.0625l15.719-11.301c2.7773-1.9922 2.7773-6.125 0-8.1172zm-9.918 4.0625c0-5.7031 6.4531-9.0156 11.086-5.6875l15.719 11.301c3.8867 2.793 3.8867 8.5742 0 11.367l-15.719 11.301c-4.6328 3.3281-11.086 0.015625-11.086-5.6875z" fill-rule="evenodd"/>
<text x="0.0" y="117.5" font-size="5.0" font-weight="bold" font-family="Arbeit Regular, Helvetica, Arial-Unicode, Arial, Sans-serif" fill="#000000">Created by HideMaru</text><text x="0.0" y="122.5" font-size="5.0" font-weight="bold" font-family="Arbeit Regular, Helvetica, Arial-Unicode, Arial, Sans-serif" fill="#000000">from Noun Project</text></svg>