<svg xmlns="http://www.w3.org/2000/svg" data-name="Layer 1" viewBox="0 0 97.5 121.875" x="0px" y="0px"><title>Untitled-85</title><path d="M61.42,38a1.21,1.21,0,0,0-1.31.21L48,49.1a1.21,1.21,0,0,0,0,1.8L60.11,61.83a1.22,1.22,0,0,0,.81.31,1.2,1.2,0,0,0,.49-.1,1.21,1.21,0,0,0,.72-1.11V39.07A1.21,1.21,0,0,0,61.42,38Z" transform="translate(-1.25 -1.25)"/><rect x="36.61" y="36.61" width="7.28" height="24.28" rx="1.21" ry="1.21"/><path d="M50,1.25A48.75,48.75,0,1,0,98.75,50,48.75,48.75,0,0,0,50,1.25Zm0,77.88A29.13,29.13,0,1,1,79.13,50,29.17,29.17,0,0,1,50,79.13Z" transform="translate(-1.25 -1.25)"/><text x="0" y="112.5" fill="#000000" font-size="5px" font-weight="bold" font-family="'Helvetica Neue', Helvetica, Arial-Unicode, Arial, Sans-serif">Created by JohnnyZi</text><text x="0" y="117.5" fill="#000000" font-size="5px" font-weight="bold" font-family="'Helvetica Neue', Helvetica, Arial-Unicode, Arial, Sans-serif">from the Noun Project</text></svg>