<svg xmlns="http://www.w3.org/2000/svg" version="1.1" viewBox="-5.0 -10.0 110.0 135.0">
 <path d="m56.152 43.859c0-6.6055-5.375-11.98-11.98-11.98s-11.98 5.375-11.98 11.98 5.375 11.98 11.98 11.98 11.98-5.375 11.98-11.98zm-11.98-7.4883c4.1289 0 7.4844 3.3594 7.4844 7.4844 0 4.1289-3.3594 7.4844-7.4844 7.4844-4.1289 0-7.4844-3.3594-7.4844-7.4844 0-4.1289 3.3594-7.4844 7.4844-7.4844zm48.199 36.965v-38.777c0-0.39844-0.19141-0.77344-0.51562-1.0078-0.21484-0.15625-0.46484-0.23438-0.73047-0.23438-0.13281 0-0.26172 0.019532-0.39062 0.0625l-10.676 3.5156-0.12109-0.58203c-1.6445-7.8086-5.9023-14.984-11.984-20.203-6.6133-5.6719-15.059-8.793-23.781-8.793-20.152-0.003906-36.547 16.391-36.547 36.543s16.395 36.547 36.547 36.547c1.8516 0 3.7188-0.14062 5.543-0.41797l1.0938-0.16797-0.55078 0.96094c-0.70312 1.2266-1.168 2.4961-1.3789 3.7656-0.41797 2.5117 0.19922 4.7383 1.7305 6.2734 1.2227 1.2227 2.8477 1.8711 4.6953 1.8711 2.6016 0 5.4727-1.3047 7.8789-3.582 3.6016-3.4102 4.8164-8.0234 4.8164-9.6016v-7.9375l0.18359-0.16016c4.6328-4.0391 8.1953-9.2109 10.301-14.957l0.089844-0.24219 6.0898-2.0273v14.199l-0.44141 0.078126c-2.0078 0.35547-4.1719 0.90625-6.6133 3.3516-1.918 1.918-3.1875 4.2695-3.5781 6.6289-0.41797 2.5117 0.19922 4.7383 1.7305 6.2734 1.2383 1.2383 2.8906 1.8945 4.7695 1.8945 2.6016 0 5.4766-1.2812 7.8828-3.5117 4.0898-3.793 3.9766-9.1523 3.9492-9.75zm-62.672-29.477c0-7.9805 6.4922-14.469 14.473-14.469s14.469 6.4922 14.469 14.469c0 7.9805-6.4922 14.469-14.469 14.469-7.9805 0-14.473-6.4922-14.473-14.469zm57.027 37.406c-1.9453 1.8047-4.1992 2.8359-6.1836 2.8359-1.2188 0-2.2656-0.39844-3.0195-1.1523-0.94922-0.94922-1.3164-2.4062-1.0352-4.1055 0.30469-1.8516 1.332-3.7227 2.8828-5.2773 2.1836-2.1836 3.8203-2.4414 6.5312-2.8633l0.19922-0.03125c0.60938-0.09375 1.0508-0.61328 1.0508-1.2305v-16.988c0-0.39844-0.19141-0.77734-0.51562-1.0078-0.21484-0.15234-0.46484-0.23437-0.72656-0.23437-0.13281 0-0.26562 0.023437-0.39453 0.0625l-19.152 6.3789c-0.50781 0.16797-0.85156 0.64453-0.85156 1.1797v20.68c-0.007813 0.625-0.78516 4.7109-4.0352 7.7891-1.9375 1.8359-4.1836 2.8867-6.1562 2.8867-1.1875 0-2.207-0.39062-2.9453-1.1289-1.0195-1.0195-1.3672-2.5938-0.97656-4.4258 0.375-1.75 1.375-3.5078 2.8203-4.9531 1.8633-1.8633 4.2344-2.9727 6.3477-2.9727 0.26953 0 0.53906 0.019531 0.79297 0.058594 0.058594 0.007813 0.12109 0.011719 0.17969 0.011719 0.30078 0 0.58984-0.10547 0.8125-0.30078 0.27344-0.23828 0.42969-0.57812 0.42969-0.94141v-30.324l27.094-8.9258v37.078c0 0.027344 0 0.054688 0.003906 0.078125 0.003906 0.046875 0.25391 4.6641-3.1562 7.8281zm0.0625-39.969c-0.21484-0.15625-0.46875-0.23828-0.73437-0.23828-0.12891 0-0.25781 0.019531-0.37891 0.058594l-19.508 6.2578c-0.51562 0.16406-0.86328 0.64062-0.86328 1.1836v4.7578c0 0.39844 0.19531 0.77734 0.51953 1.0117 0.21094 0.15234 0.46484 0.23438 0.72656 0.23438 0.13672 0 0.26953-0.023438 0.39844-0.066406l19.508-6.6094c0.50391-0.17188 0.84375-0.64453 0.84375-1.1797v-4.4062c0-0.39453-0.19141-0.77344-0.51172-1.0039zm-1.9805 4.5195-4.2422 1.4375 0.054688-0.80078c0.015625-0.25 0.03125-0.5 0.042968-0.75391l0.019532-0.36719 4.1211-1.3203v1.8047z"/>
<text x="0.0" y="117.5" font-size="5.0" font-weight="bold" font-family="Arbeit Regular, Helvetica, Arial-Unicode, Arial, Sans-serif" fill="#000000">Created by aditya_chan</text><text x="0.0" y="122.5" font-size="5.0" font-weight="bold" font-family="Arbeit Regular, Helvetica, Arial-Unicode, Arial, Sans-serif" fill="#000000">from Noun Project</text></svg>