<svg xmlns="http://www.w3.org/2000/svg" version="1.1" viewBox="-5.0 -10.0 110.0 135.0">
 <path d="m45.727 18.914c0.72656-0.39453 1.1758-1.1602 1.1758-1.9844 0-0.82813-0.44922-1.5898-1.1758-1.9844l-7.3398-4.0156-4.0117-7.3398c-0.79297-1.4531-3.1797-1.4531-3.9727 0l-4.0117 7.3359-7.3398 4.0156c-0.72656 0.39453-1.1758 1.1602-1.1758 1.9844 0 0.82812 0.44922 1.5898 1.1758 1.9844l7.3398 4.0156 4.0117 7.3359c0.39844 0.72656 1.1602 1.1797 1.9883 1.1797s1.5898-0.44922 1.9883-1.1797l4.0117-7.3359zm-10.996 1.2578-2.3438 4.2852-2.3438-4.2852c-0.20703-0.37891-0.51953-0.69141-0.89844-0.89844l-4.2891-2.3477 4.2891-2.3477c0.37891-0.20703 0.69141-0.51953 0.89844-0.89844l2.3438-4.2852 2.3438 4.2852c0.20703 0.37891 0.51953 0.69141 0.89844 0.89844l4.2891 2.3477-4.2891 2.3477c-0.375 0.20703-0.6875 0.51953-0.89844 0.89844z"/>
 <path d="m41.375 30.609c-0.72656 0.39453-1.1758 1.1602-1.1758 1.9844 0 0.82812 0.45312 1.5898 1.1758 1.9844l3.6992 2.0234 2.0234 3.6992c0.39844 0.72656 1.1602 1.1797 1.9883 1.1797 0.82812 0 1.5898-0.44922 1.9883-1.1797l2.0234-3.6992 3.6992-2.0234c0.72656-0.39453 1.1797-1.1602 1.1797-1.9844 0-0.82812-0.45312-1.5898-1.1797-1.9844l-3.6992-2.0234-2.0234-3.6992c-0.39844-0.72656-1.1602-1.1797-1.9883-1.1797-0.82813 0-1.5898 0.44922-1.9883 1.1797l-2.0234 3.6992zm6.4531 1.6289c0.37891-0.20703 0.69141-0.51953 0.89844-0.89844l0.35547-0.64844 0.35547 0.64844c0.20703 0.37891 0.51953 0.69141 0.90234 0.89844l0.64844 0.35547-0.64844 0.35547c-0.37891 0.20703-0.69141 0.51953-0.90234 0.89844l-0.35547 0.64844-0.35547-0.64844c-0.20703-0.37891-0.51953-0.69141-0.89844-0.89844l-0.64844-0.35547z"/>
 <path d="m89.551 46.691h-7.4258v-3.293c0-17.715-14.41-32.129-32.125-32.129-1.25 0-2.2656 1.0117-2.2656 2.2656 0 1.25 1.0156 2.2656 2.2656 2.2656 15.219 0 27.598 12.383 27.598 27.602v33.988c0 5.7695-4.6953 10.461-10.465 10.461h-5.8516v-0.37109c0-2.6172-2.1289-4.7461-4.7461-4.7461h-10.91c-2.6172 0-4.7461 2.1289-4.7461 4.7461v5.2695c0 2.6172 2.1289 4.7461 4.7461 4.7461l10.914 0.003906c2.6172 0 4.7461-2.1289 4.7461-4.7461v-0.37109h5.8516c8.2656 0 14.992-6.7227 14.992-14.988v-2.3398h7.4258c3.5508 0 6.4414-2.8906 6.4414-6.4414v-15.473c-0.003906-3.5586-2.8906-6.4492-6.4453-6.4492zm-32.793 46.062c0 0.12109-0.097656 0.21875-0.21875 0.21875h-10.914c-0.12109 0-0.21875-0.097656-0.21875-0.21875v-5.2695c0-0.12109 0.097656-0.21875 0.21875-0.21875l10.914-0.003906c0.12109 0 0.21875 0.097656 0.21875 0.21875zm34.707-24.145c0 1.0586-0.85938 1.9141-1.9141 1.9141h-7.4258l0.003906-7.043v-12.258h7.4258c1.0547 0 1.9141 0.85938 1.9141 1.9141z"/>
 <path d="m24.816 27.188c-1.0977-0.59766-2.4727-0.1875-3.0703 0.91016-2.5352 4.668-3.8711 9.9609-3.8711 15.305v3.293h-7.4258c-3.5508 0-6.4414 2.8906-6.4414 6.4414v15.473c0 3.5547 2.8906 6.4414 6.4414 6.4414h9.6875c1.25 0 2.2656-1.0117 2.2656-2.2656v-29.383c0-4.5938 1.1484-9.1367 3.3242-13.141 0.59375-1.1016 0.1875-2.4766-0.91016-3.0742zm-16.281 41.422v-15.473c0-1.0586 0.85938-1.9141 1.9141-1.9141h7.4258v19.305h-7.4258c-1.0547-0.003906-1.9141-0.85938-1.9141-1.918z"/>
<text x="0.0" y="117.5" font-size="5.0" font-weight="bold" font-family="Arbeit Regular, Helvetica, Arial-Unicode, Arial, Sans-serif" fill="#000000">Created by Vector Place</text><text x="0.0" y="122.5" font-size="5.0" font-weight="bold" font-family="Arbeit Regular, Helvetica, Arial-Unicode, Arial, Sans-serif" fill="#000000">from Noun Project</text></svg>