<svg xmlns="http://www.w3.org/2000/svg" version="1.1" viewBox="-5.0 -10.0 110.0 135.0">
 <path d="m44.102 64.102c-1.1992 0-2.1992-1-2.1992-2.1992l-0.003906-23.801c0-1.1992 1-2.1992 2.1992-2.1992 1.1992 0 2.1992 1 2.1992 2.1992v23.699c0.003906 1.3008-0.99609 2.3008-2.1953 2.3008z"/>
 <path d="m55.898 64.102c-1.1992 0-2.1992-1-2.1992-2.1992v-23.801c0-1.1992 1-2.1992 2.1992-2.1992 1.1992 0 2.1992 1 2.1992 2.1992v23.699c0.003906 1.3008-0.89844 2.3008-2.1992 2.3008z"/>
 <path d="m73.301 90h-46.602c-9.1992 0-16.699-7.5-16.699-16.699v-46.602c0-9.1992 7.5-16.699 16.699-16.699h46.699c9.1016 0 16.602 7.5 16.602 16.699v46.699c0 9.1016-7.5 16.602-16.699 16.602zm-46.602-75.602c-6.6992 0-12.199 5.5-12.199 12.199v46.699c0 6.6992 5.5 12.199 12.199 12.199h46.699c6.6992 0 12.199-5.5 12.199-12.199l0.003906-46.598c0-6.6992-5.5-12.199-12.199-12.199h-46.703z"/>
<text x="0.0" y="117.5" font-size="5.0" font-weight="bold" font-family="Arbeit Regular, Helvetica, Arial-Unicode, Arial, Sans-serif" fill="#000000">Created by Rahmad romadoni</text><text x="0.0" y="122.5" font-size="5.0" font-weight="bold" font-family="Arbeit Regular, Helvetica, Arial-Unicode, Arial, Sans-serif" fill="#000000">from Noun Project</text></svg>