<svg xmlns="http://www.w3.org/2000/svg" version="1.1" viewBox="-5.0 -10.0 110.0 135.0">
 <path d="m73.301 10h-46.602c-9.1992 0-16.699 7.5-16.699 16.699v46.699c0 9.1016 7.5 16.602 16.699 16.602h46.699c9.1016 0 16.602-7.5 16.602-16.699v-46.602c0-9.1992-7.5-16.699-16.699-16.699zm12.301 63.301c0 6.6992-5.5 12.199-12.199 12.199h-46.703c-6.6992 0-12.199-5.5-12.199-12.199v-46.602c0-6.6992 5.5-12.199 12.199-12.199h46.699c6.6992 0 12.199 5.5 12.199 12.199z"/>
 <path d="m69.102 24.102h-12.703c-1.1992 0-2.1992 1-2.1992 2.1992v24c-2.6992-2.6992-6.3984-4.3008-10.5-4.3008-8.3008 0-15 6.6992-15 15s6.6992 15 15 15 15-6.6992 15-15v-32.5h10.5c1.1992 0 2.1992-1 2.1992-2.1992s-1-2.1992-2.2969-2.1992zm-25.5 47.398c-5.8008 0-10.5-4.6992-10.5-10.5s4.6992-10.5 10.5-10.5c5.8008 0 10.5 4.6992 10.5 10.5s-4.7031 10.5-10.5 10.5z"/>
<text x="0.0" y="117.5" font-size="5.0" font-weight="bold" font-family="Arbeit Regular, Helvetica, Arial-Unicode, Arial, Sans-serif" fill="#000000">Created by Rahmad romadoni</text><text x="0.0" y="122.5" font-size="5.0" font-weight="bold" font-family="Arbeit Regular, Helvetica, Arial-Unicode, Arial, Sans-serif" fill="#000000">from Noun Project</text></svg>