<svg xmlns="http://www.w3.org/2000/svg" version="1.1" viewBox="-5.0 -10.0 110.0 135.0">
 <path d="m25.066 64.98c5.1133 0 9.2812-4.1641 9.2812-9.2812 0-5.1133-4.1641-9.2812-9.2812-9.2812-5.1133 0-9.2812 4.1641-9.2812 9.2812 0 5.1172 4.1602 9.2812 9.2812 9.2812zm0-16.211c3.8203 0 6.9297 3.1094 6.9297 6.9297 0 3.8203-3.1094 6.9297-6.9297 6.9297-3.8203 0-6.9297-3.1094-6.9297-6.9297 0-3.8203 3.1094-6.9297 6.9297-6.9297z"/>
 <path d="m25.066 43.18c3.4805 0 6.3086-2.8281 6.3086-6.3086 0-3.4805-2.8281-6.3086-6.3086-6.3086-3.4805 0-6.3086 2.8281-6.3086 6.3086-0.003906 3.4805 2.8281 6.3086 6.3086 6.3086zm0-10.27c2.1797 0 3.9609 1.7734 3.9609 3.9609 0 2.1797-1.7734 3.9609-3.9609 3.9609-2.1836 0-3.9609-1.7734-3.9609-3.9609 0-2.1797 1.7734-3.9609 3.9609-3.9609z"/>
 <path d="m25.066 60.066c2.4062 0 4.3633-1.9531 4.3633-4.3633s-1.9531-4.3633-4.3633-4.3633c-2.4102-0.003906-4.3672 1.957-4.3672 4.3594 0 2.4062 1.9609 4.3672 4.3672 4.3672zm0-6.375c1.1094 0 2.0156 0.90625 2.0156 2.0156s-0.90625 2.0156-2.0156 2.0156c-1.1133-0.003906-2.0156-0.91406-2.0156-2.0234s0.90234-2.0078 2.0156-2.0078z"/>
 <path d="m25.066 39.664c1.5391 0 2.7969-1.2539 2.7969-2.7969 0-1.5391-1.2539-2.7969-2.7969-2.7969-1.5391 0-2.7969 1.2539-2.7969 2.7969 0 1.543 1.2539 2.7969 2.7969 2.7969zm0-3.2383c0.24609 0 0.44531 0.19922 0.44531 0.44531s-0.19922 0.44531-0.44531 0.44531-0.44531-0.19922-0.44531-0.44531 0.19922-0.44531 0.44531-0.44531z"/>
 <path d="m85.84 25.953h-21.809c-1.7852 0-3.2344 1.4492-3.2344 3.2344v17.406h-21.594v-17.398c0-1.7852-1.4492-3.2344-3.2344-3.2344h-21.809c-1.7852 0-3.2344 1.4492-3.2344 3.2344v37.156c0 1.3398 0.81641 2.4883 1.9766 2.9805v1.9141c0 1.5391 1.2539 2.7969 2.7969 2.7969h68.609c1.5391 0 2.7969-1.2539 2.7969-2.7969v-1.9141c1.1602-0.49609 1.9766-1.6445 1.9766-2.9805l-0.007812-37.156c0.003906-1.7852-1.4492-3.2422-3.2344-3.2422zm-22.695 3.2422c0-0.48828 0.39844-0.88672 0.88672-0.88672h21.809c0.48828 0 0.88672 0.39844 0.88672 0.88672v37.156c0 0.48828-0.39844 0.88672-0.88672 0.88672h-21.809c-0.48828 0-0.88672-0.39844-0.88672-0.88672zm-2.3477 19.75v17.406c0 0.30859 0.046875 0.60547 0.125 0.88672l-21.844-0.003906c0.078125-0.28125 0.125-0.57812 0.125-0.88672v-17.402zm-47.527-19.75c0-0.48828 0.39844-0.88672 0.88672-0.88672h21.809c0.48828 0 0.88672 0.39844 0.88672 0.88672v37.156c0 0.48828-0.39844 0.88672-0.88672 0.88672l-21.805-0.003906c-0.48828 0-0.88672-0.39844-0.88672-0.88672v-37.152zm71.035 42.5h-68.609c-0.24609 0-0.44531-0.19922-0.44531-0.44531v-1.6602h69.5v1.6602c0 0.24609-0.19922 0.44531-0.44531 0.44531z"/>
 <path d="m74.934 64.98c5.1133 0 9.2812-4.1641 9.2812-9.2812 0-5.1133-4.1641-9.2812-9.2812-9.2812-5.1133 0-9.2812 4.1641-9.2812 9.2812 0.003906 5.1172 4.168 9.2812 9.2812 9.2812zm0-16.211c3.8203 0 6.9297 3.1094 6.9297 6.9297 0 3.8203-3.1094 6.9297-6.9297 6.9297-3.8203 0-6.9297-3.1094-6.9297-6.9297 0-3.8203 3.1094-6.9297 6.9297-6.9297z"/>
 <path d="m74.934 43.18c3.4805 0 6.3086-2.8281 6.3086-6.3086 0-3.4805-2.8281-6.3086-6.3086-6.3086-3.4805 0-6.3086 2.8281-6.3086 6.3086 0.003906 3.4805 2.8281 6.3086 6.3086 6.3086zm0-10.27c2.1836 0 3.9609 1.7734 3.9609 3.9609 0 2.1797-1.7734 3.9609-3.9609 3.9609-2.1797 0-3.9609-1.7734-3.9609-3.9609 0.007813-2.1797 1.7812-3.9609 3.9609-3.9609z"/>
 <path d="m74.934 60.066c2.4062 0 4.3633-1.9531 4.3633-4.3633s-1.9531-4.3633-4.3633-4.3633-4.3633 1.9531-4.3633 4.3633c0 2.4062 1.9609 4.3633 4.3633 4.3633zm0-6.375c1.1094 0 2.0156 0.90625 2.0156 2.0156s-0.90625 2.0156-2.0156 2.0156-2.0156-0.90625-2.0156-2.0156c0.003906-1.1133 0.90625-2.0156 2.0156-2.0156z"/>
 <path d="m74.934 39.664c1.5391 0 2.7969-1.2539 2.7969-2.7969 0-1.5391-1.2539-2.7969-2.7969-2.7969-1.5391 0-2.7969 1.2539-2.7969 2.7969 0.003906 1.543 1.2578 2.7969 2.7969 2.7969zm0-3.2383c0.24609 0 0.44531 0.19922 0.44531 0.44531s-0.19922 0.44531-0.44531 0.44531-0.44531-0.19922-0.44531-0.44531 0.20312-0.44531 0.44531-0.44531z"/>
 <path d="m50 62.996c2.7031 0 4.9062-2.1992 4.9062-4.9062 0-2.7031-2.1992-4.9062-4.9062-4.9062-2.7031 0-4.9062 2.1992-4.9062 4.9062 0 2.707 2.2031 4.9062 4.9062 4.9062zm0-7.457c1.4102 0 2.5547 1.1445 2.5547 2.5547s-1.1445 2.5547-2.5547 2.5547-2.5547-1.1445-2.5547-2.5547 1.1445-2.5547 2.5547-2.5547z"/>
 <path d="m41.734 66.59h3.7539c0.64844 0 1.1758-0.52344 1.1758-1.1758 0-0.64844-0.52344-1.1758-1.1758-1.1758h-3.7539c-0.64844 0-1.1758 0.52344-1.1758 1.1758 0 0.65234 0.52734 1.1758 1.1758 1.1758z"/>
 <path d="m49 64.238h-0.73047c-0.64844 0-1.1758 0.52344-1.1758 1.1758 0 0.64844 0.52344 1.1758 1.1758 1.1758h0.73047c0.64844 0 1.1758-0.52344 1.1758-1.1758 0-0.64844-0.52734-1.1758-1.1758-1.1758z"/>
<text x="0.0" y="117.5" font-size="5.0" font-weight="bold" font-family="Arbeit Regular, Helvetica, Arial-Unicode, Arial, Sans-serif" fill="#000000">Created by Adi Waluyo Noto Carito</text><text x="0.0" y="122.5" font-size="5.0" font-weight="bold" font-family="Arbeit Regular, Helvetica, Arial-Unicode, Arial, Sans-serif" fill="#000000">from Noun Project</text></svg>