<svg xmlns="http://www.w3.org/2000/svg" version="1.1" viewBox="-5.0 -10.0 110.0 135.0">
 <path d="m50 12c-20.988 0-38 17.012-38 38s17.012 38 38 38 38-17.012 38-38-17.012-38-38-38zm-40 38c0-22.09 17.91-40 40-40s40 17.91 40 40-17.91 40-40 40-40-17.91-40-40zm21-10c0-4.9688 4.0312-9 9-9h20c4.9688 0 9 4.0312 9 9v20c0 4.9688-4.0312 9-9 9h-20c-4.9688 0-9-4.0312-9-9zm9-7c-3.8672 0-7 3.1328-7 7v20c0 3.8672 3.1328 7 7 7h20c3.8672 0 7-3.1328 7-7v-20c0-3.8672-3.1328-7-7-7z" fill-rule="evenodd"/>
<text x="0.0" y="117.5" font-size="5.0" font-weight="bold" font-family="Arbeit Regular, Helvetica, Arial-Unicode, Arial, Sans-serif" fill="#000000">Created by HideMaru</text><text x="0.0" y="122.5" font-size="5.0" font-weight="bold" font-family="Arbeit Regular, Helvetica, Arial-Unicode, Arial, Sans-serif" fill="#000000">from Noun Project</text></svg>