<svg xmlns="http://www.w3.org/2000/svg" version="1.1" viewBox="-5.0 -10.0 110.0 135.0">
 <path d="m81.945 16.668c0-3.8281-3.1172-6.9453-6.9453-6.9453h-63.891c-3.8281 0-6.9453 3.1172-6.9453 6.9453v50c0 3.8281 3.1172 6.9453 6.9453 6.9453h12.5c0.76953 0 1.3906-0.62109 1.3906-1.3906 0-0.76953-0.62109-1.3906-1.3906-1.3906h-12.5c-2.2969 0-4.168-1.8672-4.168-4.168l0.003906-49.996c0-2.2969 1.8672-4.168 4.168-4.168h63.891c2.2969 0 4.168 1.8672 4.168 4.168v40.277c0 0.76953 0.62109 1.3906 1.3906 1.3906s1.3906-0.62109 1.3906-1.3906z"/>
 <path d="m18.055 19.445c-0.76953 0-1.3906 0.62109-1.3906 1.3906v34.723h-1.3906c-2.2969 0-4.168 1.8672-4.168 4.168 0 2.2969 1.8672 4.168 4.168 4.168h5.5547c2.2969 0 4.168-1.8672 4.168-4.168 0-2.2969-1.8672-4.168-4.168-4.168h-1.3906l0.007812-34.727c0-0.76953-0.62109-1.3906-1.3906-1.3906zm4.168 40.277c0 0.76562-0.62109 1.3906-1.3906 1.3906h-5.5547c-0.76562 0-1.3906-0.62109-1.3906-1.3906 0-0.76562 0.62109-1.3906 1.3906-1.3906h5.5547c0.76562 0 1.3906 0.62109 1.3906 1.3906z"/>
 <path d="m34.723 19.445c-0.76953 0-1.3906 0.62109-1.3906 1.3906v18.055h-1.3906c-2.2969 0-4.168 1.8672-4.168 4.168 0 2.2969 1.8672 4.168 4.168 4.168h1.3906v15.277c0 0.76953 0.62109 1.3906 1.3906 1.3906 0.76953 0 1.3906-0.62109 1.3906-1.3906v-15.277h1.3906c2.2969 0 4.168-1.8672 4.168-4.168 0-2.2969-1.8672-4.168-4.168-4.168h-1.3906v-18.055c0-0.76953-0.62109-1.3906-1.3906-1.3906zm4.168 23.609c0 0.76562-0.62109 1.3906-1.3906 1.3906h-5.5547c-0.76562 0-1.3906-0.62109-1.3906-1.3906 0-0.76563 0.62109-1.3906 1.3906-1.3906h5.5547c0.76562 0 1.3906 0.62109 1.3906 1.3906z"/>
 <path d="m54.168 26.391h-1.3906v-5.5547c0-0.76953-0.62109-1.3906-1.3906-1.3906s-1.3906 0.62109-1.3906 1.3906v5.5547h-1.3906c-2.2969 0-4.168 1.8672-4.168 4.168 0 2.2969 1.8672 4.168 4.168 4.168h1.3906v16.668c0 0.76953 0.62109 1.3906 1.3906 1.3906s1.3906-0.62109 1.3906-1.3906v-16.668h1.3906c2.2969 0 4.168-1.8672 4.168-4.168 0-2.2969-1.8672-4.168-4.168-4.168zm0 5.5547h-5.5547c-0.76562 0-1.3906-0.62109-1.3906-1.3906 0-0.76563 0.62109-1.3906 1.3906-1.3906h5.5547c0.76562 0 1.3906 0.62109 1.3906 1.3906 0 0.76562-0.62109 1.3906-1.3906 1.3906z"/>
 <path d="m70.832 47.223h-1.3906l0.003906-26.391c0-0.76953-0.62109-1.3906-1.3906-1.3906-0.76953 0-1.3906 0.62109-1.3906 1.3906v26.391h-1.3906c-2.2969 0-4.168 1.8672-4.168 4.168 0 2.2969 1.8672 4.168 4.168 4.168h5.5547c2.2969 0 4.168-1.8672 4.168-4.168 0-2.2969-1.8672-4.168-4.168-4.168zm0 5.5547h-5.5547c-0.76562 0-1.3906-0.62109-1.3906-1.3906 0-0.76562 0.62109-1.3906 1.3906-1.3906h5.5547c0.76562 0 1.3906 0.62109 1.3906 1.3906 0 0.76562-0.62109 1.3906-1.3906 1.3906z"/>
 <path d="m52.41 54.168c-0.96484 0-1.8867 0.30078-2.6641 0.86719l-13.723 9.9805c-0.23828 0.17188-0.51953 0.26562-0.81641 0.26562h-4.6523c-2.2969 0-4.168 1.8672-4.168 4.168v5.5547c0 2.2969 1.8672 4.168 4.168 4.168h4.6523c0.29688 0 0.57812 0.09375 0.81641 0.26562l13.723 9.9805c0.78125 0.56641 1.7031 0.86719 2.6641 0.86719 2.5 0 4.5312-2.0312 4.5312-4.5312v-27.047c0-2.5-2.0312-4.5312-4.5312-4.5312zm1.7578 31.578c0 0.96875-0.78516 1.7539-1.7539 1.7539-0.37109 0-0.73047-0.11719-1.0352-0.33594l-13.719-9.9805c-0.71484-0.52344-1.5664-0.79688-2.4531-0.79688h-4.6523c-0.76563 0-1.3906-0.62109-1.3906-1.3906v-5.5547c0-0.76562 0.62109-1.3906 1.3906-1.3906h4.6523c0.88672 0 1.7344-0.27344 2.4492-0.79688l13.719-9.9766c0.30469-0.21875 0.66016-0.33594 1.0352-0.33594 0.96875 0 1.7539 0.78516 1.7539 1.7539v27.047z"/>
 <path d="m61.109 66.668c-0.76953 0-1.3906 0.62109-1.3906 1.3906v9.7227c0 0.76953 0.62109 1.3906 1.3906 1.3906s1.3906-0.62109 1.3906-1.3906v-9.7227c0-0.76953-0.62109-1.3906-1.3906-1.3906z"/>
 <path d="m66.668 65.277c-0.76953 0-1.3906 0.62109-1.3906 1.3906v12.5c0 0.76953 0.62109 1.3906 1.3906 1.3906s1.3906-0.62109 1.3906-1.3906v-12.5c0-0.76953-0.62109-1.3906-1.3906-1.3906z"/>
 <path d="m72.223 61.109c-0.76953 0-1.3906 0.62109-1.3906 1.3906v20.832c0 0.76953 0.62109 1.3906 1.3906 1.3906 0.76953 0 1.3906-0.62109 1.3906-1.3906v-20.832c0-0.76953-0.62109-1.3906-1.3906-1.3906z"/>
 <path d="m77.777 63.891c-0.76953 0-1.3906 0.62109-1.3906 1.3906v15.277c0 0.76953 0.62109 1.3906 1.3906 1.3906 0.76953 0 1.3906-0.62109 1.3906-1.3906v-15.277c0-0.76953-0.62109-1.3906-1.3906-1.3906z"/>
 <path d="m83.332 59.723c-0.76953 0-1.3906 0.62109-1.3906 1.3906v25c0 0.76953 0.62109 1.3906 1.3906 1.3906s1.3906-0.62109 1.3906-1.3906v-25c0-0.76953-0.62109-1.3906-1.3906-1.3906z"/>
 <path d="m88.891 68.055c-0.76953 0-1.3906 0.62109-1.3906 1.3906v8.332c0 0.76953 0.62109 1.3906 1.3906 1.3906s1.3906-0.62109 1.3906-1.3906v-8.332c0-0.76953-0.62109-1.3906-1.3906-1.3906z"/>
 <path d="m94.445 69.445c-0.76953 0-1.3906 0.62109-1.3906 1.3906v5.5547c0 0.76953 0.62109 1.3906 1.3906 1.3906 0.76953 0 1.3906-0.62109 1.3906-1.3906v-5.5547c0-0.76953-0.62109-1.3906-1.3906-1.3906z"/>
<text x="0.0" y="117.5" font-size="5.0" font-weight="bold" font-family="Arbeit Regular, Helvetica, Arial-Unicode, Arial, Sans-serif" fill="#000000">Created by ida bagus mahendra putra</text><text x="0.0" y="122.5" font-size="5.0" font-weight="bold" font-family="Arbeit Regular, Helvetica, Arial-Unicode, Arial, Sans-serif" fill="#000000">from Noun Project</text></svg>