<svg xmlns="http://www.w3.org/2000/svg" version="1.1" viewBox="-5.0 -10.0 110.0 135.0">
 <g>
  <path d="m93.688 87.32h-87.375c-2.9102-0.003906-5.2695-2.3672-5.2695-5.2773v-64.086c0-2.9102 2.3555-5.2734 5.2695-5.2773h87.375c2.9141 0.003906 5.2695 2.3672 5.2695 5.2773v64.086c0 2.9102-2.3594 5.2734-5.2695 5.2773zm-87.375-72.559c-1.7617 0.003906-3.1875 1.4336-3.1875 3.1953v64.086c0 1.7617 1.4258 3.1914 3.1875 3.1953h87.375c1.7617-0.003906 3.1875-1.4336 3.1875-3.1953v-64.086c0-1.7617-1.4258-3.1914-3.1875-3.1953z"/>
  <path d="m37.387 77.418c-7.2617 0.015625-14.234-2.8594-19.379-7.9844-5.1406-5.1289-8.0391-12.086-8.0469-19.352-0.007813-7.2617 2.8672-14.23 7.9961-19.371 5.1328-5.1367 12.094-8.0273 19.355-8.0352 7.2617-0.003906 14.23 2.8789 19.367 8.0117 5.1367 5.1328 8.0234 12.098 8.0234 19.359-0.003906 7.25-2.8789 14.203-8 19.336-5.1211 5.1289-12.066 8.0195-19.316 8.0352zm0-52.656c-6.7109-0.015625-13.152 2.6367-17.902 7.375-4.7539 4.7344-7.4297 11.164-7.4414 17.875-0.007813 6.7109 2.6484 13.148 7.3867 17.898 4.7422 4.75 11.172 7.418 17.883 7.4258 6.7109 0.003906 13.148-2.6602 17.895-7.4023 4.7461-4.7422 7.4102-11.176 7.4102-17.887 0-6.6953-2.6562-13.121-7.3867-17.859-4.7305-4.7422-11.148-7.4141-17.844-7.4258z"/>
  <path d="m37.387 58.254c-3.3203 0.007813-6.3203-1.9883-7.5938-5.0547-1.2773-3.0664-0.57812-6.5977 1.7695-8.9492 2.3438-2.3516 5.875-3.0547 8.9453-1.7852 3.0703 1.2695 5.0703 4.2617 5.0703 7.582 0 4.5273-3.668 8.1992-8.1914 8.207zm0-14.332v0.003906c-2.4805-0.007812-4.7188 1.4805-5.668 3.7695-0.95312 2.2852-0.43359 4.9219 1.3164 6.6758 1.75 1.7578 4.3867 2.2812 6.6758 1.3359 2.2891-0.94531 3.7852-3.1797 3.7852-5.6602 0-3.375-2.7344-6.1133-6.1094-6.1211z"/>
  <path d="m80.336 36.566c-3.3477 0.007813-6.3711-2.0078-7.6562-5.0977-1.2891-3.0938-0.58203-6.6562 1.7852-9.0273 2.3633-2.3711 5.9258-3.082 9.0234-1.8008 3.0938 1.2812 5.1133 4.3008 5.1133 7.6484 0 4.5664-3.6992 8.2695-8.2656 8.2773zm0-14.473c-2.5078-0.003906-4.7695 1.5-5.7344 3.8164-0.96094 2.3125-0.4375 4.9805 1.3359 6.7539 1.7695 1.7773 4.4336 2.3086 6.7539 1.3516 2.3164-0.96094 3.8242-3.2188 3.8242-5.7266 0-3.4141-2.7617-6.1875-6.1797-6.1953z"/>
  <path d="m69.414 67.57c-0.4375 0.003907-0.82812-0.26953-0.97656-0.67969-0.15234-0.41016-0.03125-0.87109 0.30078-1.1523l3.4805-2.9688c1.8359-1.5234 2.6602-3.9453 2.1406-6.2734-0.10938-0.48828-0.23438-0.96875-0.35547-1.457h-0.003906c-0.86719-2.9688-1.1875-6.0703-0.94922-9.1562 0.60938-7.7812 5.9414-17.488 6.168-17.898h0.003906c0.27734-0.5 0.91016-0.68359 1.4141-0.40625 0.50391 0.28125 0.6875 0.91406 0.40625 1.418-0.054688 0.097656-5.3398 9.7227-5.9141 17.051-0.22266 2.8594 0.078125 5.7344 0.89062 8.4805 0.12891 0.50391 0.25391 1.0039 0.36719 1.5078h0.003906c0.69531 3.0859-0.39453 6.3008-2.8242 8.3242l-3.4766 2.9648c-0.1875 0.16016-0.42578 0.25-0.67578 0.24609z"/>
  <path d="m62.027 77.414c-0.71484 0.003907-1.3945-0.3125-1.8555-0.85547l-2.4258-2.8789c-0.41406-0.49219-0.61719-1.1328-0.5625-1.7734 0.058594-0.64453 0.36719-1.2383 0.85938-1.6523l7.457-6.2422c1.0234-0.85156 2.543-0.72266 3.4023 0.29688l2.4297 2.8789c0.41406 0.49219 0.61719 1.1328 0.55859 1.7734-0.054687 0.64062-0.36328 1.2344-0.85547 1.6484l-7.457 6.2422c-0.43359 0.36719-0.98438 0.56641-1.5508 0.5625zm5.0273-11.883h-0.003907c-0.078125 0-0.15234 0.027344-0.21484 0.078125l-7.457 6.2422h0.003906c-0.14453 0.125-0.16406 0.33984-0.042968 0.48438l2.4258 2.8789c0.12109 0.14062 0.33203 0.16016 0.47656 0.039062l7.457-6.2422h-0.003907c0.070313-0.058594 0.11328-0.14062 0.12109-0.23047 0.007813-0.089844-0.019531-0.17969-0.078125-0.25l-2.4258-2.8789c-0.066406-0.078125-0.16016-0.12109-0.26172-0.12109z"/>
  <path d="m11.727 27.234c-1.75 0.003906-3.3281-1.0469-4-2.6641-0.67187-1.6172-0.30469-3.4805 0.93359-4.7188 1.2383-1.2383 3.0977-1.6094 4.7148-0.94141 1.6172 0.67188 2.6719 2.25 2.6719 4 0 2.3867-1.9336 4.3203-4.3203 4.3242zm0-6.5703c-0.90625 0-1.7266 0.54297-2.0742 1.3828-0.35156 0.83594-0.16016 1.8047 0.48047 2.4453 0.64063 0.64453 1.6055 0.83594 2.4453 0.49219 0.83984-0.34766 1.3867-1.168 1.3867-2.0742 0-1.2383-1-2.2422-2.2383-2.2461z"/>
  <path d="m11.727 81.512c-1.75 0.003906-3.3281-1.0508-4-2.6641-0.67187-1.6172-0.30469-3.4805 0.93359-4.7188 1.2383-1.2383 3.0977-1.6094 4.7148-0.94141s2.6758 2.2461 2.6719 4c0 2.3867-1.9336 4.3203-4.3203 4.3242zm0-6.5703c-0.90625-0.003906-1.7266 0.54297-2.0742 1.3828-0.35156 0.83594-0.16016 1.8008 0.48047 2.4453 0.64063 0.64453 1.6055 0.83594 2.4453 0.48828 0.83984-0.34375 1.3867-1.1641 1.3867-2.0703 0-1.2383-1-2.2422-2.2383-2.2461z"/>
  <path d="m86.562 81.512c-0.27734 0-0.54297-0.10938-0.73828-0.30469-0.19531-0.19531-0.30469-0.46094-0.30469-0.73438v-25.332c0-0.57422 0.46484-1.0391 1.043-1.0391 0.57422 0 1.0391 0.46484 1.0391 1.0391v25.332c0 0.27344-0.10937 0.53906-0.30469 0.73438-0.19531 0.19531-0.46094 0.30469-0.73438 0.30469z"/>
  <path d="m90.469 60.852h-7.8164c-0.57422 0-1.0391-0.46875-1.0391-1.043 0-0.57422 0.46484-1.043 1.0391-1.043h7.8164c0.57422 0 1.043 0.46875 1.043 1.043 0 0.57422-0.46875 1.043-1.043 1.043z"/>
 </g>
<text x="0.0" y="117.5" font-size="5.0" font-weight="bold" font-family="Arbeit Regular, Helvetica, Arial-Unicode, Arial, Sans-serif" fill="#000000">Created by trimenz</text><text x="0.0" y="122.5" font-size="5.0" font-weight="bold" font-family="Arbeit Regular, Helvetica, Arial-Unicode, Arial, Sans-serif" fill="#000000">from Noun Project</text></svg>