<svg xmlns="http://www.w3.org/2000/svg" version="1.1" viewBox="-5.0 -10.0 110.0 135.0">
 <path d="m58.641 31.766c1.293 0 2.3438-1.0508 2.3438-2.3438v-4.2812c0.12109-5.8711-5.0977-11.113-10.984-10.984-6.0586 0-10.984 4.9258-10.984 10.984v21.359c0.55078 14.566 21.418 14.574 21.969 0v-7.7031c-0.054687-3.0859-4.6328-3.0781-4.6875 0v7.7031c0 3.4805-2.8242 6.3125-6.2969 6.3125s-6.2969-2.832-6.2969-6.3125v-21.359c0.30469-8.3555 12.289-8.3047 12.594 0v4.2812c0 1.293 1.0508 2.3438 2.3438 2.3438z"/>
 <path d="m35.398 44.773c-0.042969-3.0664-4.6367-3.0898-4.6875 0v3.8047c0 9.8438 7.4141 17.973 16.945 19.133v5.7539h-4.0977c-1.293 0-2.3438 1.0508-2.3438 2.3438 0 1.293 1.0508 2.3438 2.3438 2.3438h12.883c3.0781-0.058594 3.082-4.6289 0-4.6875h-4.0977v-5.7539c9.5352-1.1602 16.945-9.2891 16.945-19.133v-3.8047c-0.058593-3.0742-4.6289-3.0859-4.6875 0v3.8047c0 8.0508-6.5508 14.602-14.602 14.602s-14.602-6.5508-14.602-14.602z"/>
 <path d="m37.375 81.16c-3.0742 0.050782-3.0859 4.6328 0 4.6875h25.246c3.0742-0.050781 3.0859-4.6328 0-4.6875h-25.246z"/>
 <path d="m34.664 28.656h-3.1445l-3.5977-10.129c-0.67969-2.1367-3.8984-2.0039-4.457 0.125l-4.1367 14.133-1.168-2.7109c-0.37109-0.85938-1.2148-1.418-2.1523-1.418h-7.4141c-3.0703 0.050781-3.0859 4.6328 0 4.6875h5.8711l3.1289 7.2734c0.78125 1.9844 3.8711 1.7969 4.4023-0.26563l3.9336-13.426 1.7266 4.8633c0.33203 0.93359 1.2148 1.5586 2.207 1.5586h4.8008c3.0742-0.050781 3.0859-4.6328 0-4.6875z"/>
 <path d="m91.406 28.656h-7.4141c-0.9375 0-1.7812 0.55859-2.1523 1.418l-1.168 2.7109-4.1367-14.133c-0.55469-2.125-3.8008-2.2656-4.457-0.125l-3.5977 10.129h-3.1445c-1.293 0-2.3438 1.0508-2.3438 2.3438s1.0508 2.3438 2.3438 2.3438h4.8008c0.99219 0 1.875-0.625 2.207-1.5586l1.7266-4.8633 3.9336 13.43c0.53125 2.0625 3.6211 2.2578 4.4023 0.26563l3.1289-7.2734h5.8711c3.0703-0.050781 3.0859-4.6328 0-4.6875z"/>
<text x="0.0" y="117.5" font-size="5.0" font-weight="bold" font-family="Arbeit Regular, Helvetica, Arial-Unicode, Arial, Sans-serif" fill="#000000">Created by Sentya Irma</text><text x="0.0" y="122.5" font-size="5.0" font-weight="bold" font-family="Arbeit Regular, Helvetica, Arial-Unicode, Arial, Sans-serif" fill="#000000">from Noun Project</text></svg>