<svg xmlns="http://www.w3.org/2000/svg" version="1.1" viewBox="-5.0 -10.0 110.0 135.0">
 <path d="m5.5547 37.5c-0.76953 0-1.3906 0.62109-1.3906 1.3906v11.109c0 0.76953 0.62109 1.3906 1.3906 1.3906 0.76953 0 1.3906-0.62109 1.3906-1.3906v-11.109c0-0.76953-0.62109-1.3906-1.3906-1.3906z"/>
 <path d="m11.109 33.332c-0.76953 0-1.3906 0.62109-1.3906 1.3906v19.445c0 0.76953 0.62109 1.3906 1.3906 1.3906s1.3906-0.62109 1.3906-1.3906v-19.445c0-0.76953-0.62109-1.3906-1.3906-1.3906z"/>
 <path d="m16.668 25c-0.76953 0-1.3906 0.62109-1.3906 1.3906v36.109c0 0.76953 0.62109 1.3906 1.3906 1.3906s1.3906-0.62109 1.3906-1.3906v-36.109c0-0.76953-0.62109-1.3906-1.3906-1.3906z"/>
 <path d="m22.223 29.168c-0.76953 0-1.3906 0.62109-1.3906 1.3906v27.777c0 0.76953 0.62109 1.3906 1.3906 1.3906 0.76953 0 1.3906-0.62109 1.3906-1.3906v-27.777c0-0.76953-0.62109-1.3906-1.3906-1.3906z"/>
 <path d="m27.777 33.332c-0.76953 0-1.3906 0.62109-1.3906 1.3906v19.445c0 0.76953 0.62109 1.3906 1.3906 1.3906 0.76953 0 1.3906-0.62109 1.3906-1.3906v-19.445c0-0.76953-0.62109-1.3906-1.3906-1.3906z"/>
 <path d="m33.332 37.5c-0.76953 0-1.3906 0.62109-1.3906 1.3906v11.109c0 0.76953 0.62109 1.3906 1.3906 1.3906s1.3906-0.62109 1.3906-1.3906v-11.109c0-0.76953-0.62109-1.3906-1.3906-1.3906z"/>
 <path d="m38.891 40.277c-0.76953 0-1.3906 0.62109-1.3906 1.3906v5.5547c0 0.76953 0.62109 1.3906 1.3906 1.3906s1.3906-0.62109 1.3906-1.3906v-5.5547c0-0.76953-0.62109-1.3906-1.3906-1.3906z"/>
 <path d="m44.445 33.332c-0.76953 0-1.3906 0.62109-1.3906 1.3906v19.445c0 0.76953 0.62109 1.3906 1.3906 1.3906 0.76953 0 1.3906-0.62109 1.3906-1.3906v-19.445c0-0.76953-0.62109-1.3906-1.3906-1.3906z"/>
 <path d="m50 23.609c-0.76953 0-1.3906 0.62109-1.3906 1.3906v38.891c0 0.76953 0.62109 1.3906 1.3906 1.3906s1.3906-0.62109 1.3906-1.3906v-38.891c0-0.76953-0.62109-1.3906-1.3906-1.3906z"/>
 <path d="m56.945 31.945c0-0.76953-0.62109-1.3906-1.3906-1.3906-0.76953 0-1.3906 0.62109-1.3906 1.3906v25c0 0.76953 0.62109 1.3906 1.3906 1.3906 0.76953 0 1.3906-0.62109 1.3906-1.3906z"/>
 <path d="m61.109 54.168c0.76953 0 1.3906-0.62109 1.3906-1.3906v-16.668c0-0.76953-0.62109-1.3906-1.3906-1.3906s-1.3906 0.62109-1.3906 1.3906v16.668c0 0.76953 0.62109 1.3906 1.3906 1.3906z"/>
 <path d="m66.668 50c0.76953 0 1.3906-0.62109 1.3906-1.3906v-8.332c0-0.76953-0.62109-1.3906-1.3906-1.3906s-1.3906 0.62109-1.3906 1.3906v8.332c0 0.76953 0.62109 1.3906 1.3906 1.3906z"/>
 <path d="m72.223 56.945c0.76953 0 1.3906-0.62109 1.3906-1.3906v-22.223c0-0.76953-0.62109-1.3906-1.3906-1.3906-0.76953 0-1.3906 0.62109-1.3906 1.3906v22.223c0 0.76953 0.62109 1.3906 1.3906 1.3906z"/>
 <path d="m77.777 54.168c0.76953 0 1.3906-0.62109 1.3906-1.3906v-16.668c0-0.76953-0.62109-1.3906-1.3906-1.3906-0.76953 0-1.3906 0.62109-1.3906 1.3906v16.668c0 0.76953 0.62109 1.3906 1.3906 1.3906z"/>
 <path d="m83.332 38.891c-0.76953 0-1.3906 0.62109-1.3906 1.3906v8.332c0 0.76953 0.62109 1.3906 1.3906 1.3906s1.3906-0.62109 1.3906-1.3906v-8.332c0-0.76953-0.62109-1.3906-1.3906-1.3906z"/>
 <path d="m88.891 52.777c0.76953 0 1.3906-0.62109 1.3906-1.3906v-13.891c0-0.76953-0.62109-1.3906-1.3906-1.3906s-1.3906 0.62109-1.3906 1.3906v13.891c0 0.76953 0.62109 1.3906 1.3906 1.3906z"/>
 <path d="m20.426 10.129c-0.54297-0.54297-1.4219-0.54297-1.9648 0l-2.7773 2.7773c-0.54297 0.54297-0.54297 1.4219 0 1.9648l2.7773 2.7773c0.26953 0.26953 0.625 0.40625 0.98047 0.40625 0.35547 0 0.71094-0.13672 0.98047-0.40625l2.7773-2.7773c0.54297-0.54297 0.54297-1.4219 0-1.9648l-2.7773-2.7773zm-0.98047 4.5742-0.8125-0.8125 0.8125-0.8125 0.8125 0.8125z"/>
 <path d="m32.926 12.906-2.7773-2.7773c-0.54297-0.54297-1.4219-0.54297-1.9648 0l-2.7773 2.7773c-0.54297 0.54297-0.54297 1.4219 0 1.9648l2.7773 2.7773c0.26953 0.26953 0.625 0.40625 0.98047 0.40625 0.35547 0 0.71094-0.13672 0.98047-0.40625l2.7773-2.7773c0.54297-0.54297 0.54297-1.4219 0-1.9648zm-3.7578 1.7969-0.8125-0.8125 0.8125-0.8125 0.8125 0.8125z"/>
 <path d="m42.648 12.906-2.7773-2.7773c-0.54297-0.54297-1.4219-0.54297-1.9648 0l-2.7773 2.7773c-0.54297 0.54297-0.54297 1.4219 0 1.9648l2.7773 2.7773c0.26953 0.26953 0.625 0.40625 0.98047 0.40625s0.71094-0.13672 0.98047-0.40625l2.7773-2.7773c0.54297-0.54297 0.54297-1.4219 0-1.9648zm-3.7578 1.7969-0.8125-0.8125 0.8125-0.8125 0.8125 0.8125z"/>
 <path d="m80.555 59.723h-1.9023c-0.85938 0-1.6797 0.26562-2.3906 0.75l-12.457 8.7227c-0.23438 0.16797-0.5 0.25-0.79297 0.25h-1.9023c-2.293 0-4.168 1.875-4.168 4.168v2.7773c0 2.293 1.875 4.168 4.168 4.168h1.9023c0.29297 0 0.55469 0.082031 0.79297 0.25l12.457 8.7227c0.70703 0.48438 1.5273 0.75 2.3906 0.75h1.9023c2.293 0 4.168-1.875 4.168-4.168v-22.223c0-2.293-1.875-4.168-4.168-4.168z"/>
 <path d="m87.5 66.668c-0.76953 0-1.3906 0.62109-1.3906 1.3906 0 0.76953 0.62109 1.3906 1.3906 1.3906 3.0625 0 5.5547 2.4922 5.5547 5.5547s-2.4922 5.5547-5.5547 5.5547c-0.76953 0-1.3906 0.62109-1.3906 1.3906s0.62109 1.3906 1.3906 1.3906c4.5938 0 8.332-3.7383 8.332-8.332s-3.7383-8.332-8.332-8.332z"/>
<text x="0.0" y="117.5" font-size="5.0" font-weight="bold" font-family="Arbeit Regular, Helvetica, Arial-Unicode, Arial, Sans-serif" fill="#000000">Created by Reion</text><text x="0.0" y="122.5" font-size="5.0" font-weight="bold" font-family="Arbeit Regular, Helvetica, Arial-Unicode, Arial, Sans-serif" fill="#000000">from Noun Project</text></svg>