<svg xmlns="http://www.w3.org/2000/svg" version="1.1" viewBox="-5.0 -10.0 110.0 135.0">
 <path d="m89.898 51.418c0 0.35547-0.28516 0.64062-0.64063 0.64062h-4.0078l-1.3711 4.625-1.7773-1.5977c-0.015624-0.015626-0.035156-0.027344-0.054687-0.035157-0.082031-0.03125-0.17578 0.011719-0.21094 0.09375l-1.5391 4.0469-1.25-1.8789c-0.015625-0.027344-0.042969-0.046875-0.070313-0.058594-0.082031-0.035156-0.17578 0.003906-0.21094 0.085938l-0.96484 2.2891-2.3867-2.9414c-0.023437-0.03125-0.054687-0.054688-0.09375-0.0625-0.085937-0.019531-0.17578 0.035156-0.19531 0.12109l-3.0469 12.945-3.3438-10.969c-0.007813-0.035156-0.027344-0.066406-0.058594-0.089844-0.070312-0.054687-0.17188-0.042968-0.22656 0.027344l-1.4023 1.7812-1.4453-2.6445c-0.011718-0.023437-0.03125-0.046875-0.054687-0.066406-0.074219-0.050781-0.17578-0.03125-0.22656 0.042969l-1.2656 1.8555-1.8438-3.5039c-0.019532-0.046875-0.0625-0.078125-0.11719-0.089844-0.089844-0.015625-0.17188 0.039063-0.19141 0.12891l-3.6133 18.434-2.9727-18.82c-0.007812-0.054688-0.042968-0.10547-0.097656-0.12891-0.082031-0.035157-0.17578 0.003906-0.21094 0.089843l-2.9883 7.2344-2.1133-2.2695c-0.015625-0.019531-0.039062-0.039063-0.066406-0.046875-0.082032-0.03125-0.17578 0.011719-0.21094 0.09375l-1.3008 3.4102-1.918-5.5508c-0.011718-0.035156-0.035156-0.066406-0.066406-0.085937-0.074219-0.046876-0.17578-0.027344-0.22266 0.050781l-1.7656 2.7695-1.5195-4.5859c-0.011719-0.039062-0.039063-0.074218-0.078126-0.09375-0.078124-0.042968-0.17578-0.007812-0.21875 0.070313l-1.7344 3.3555-1.4883-5.4258c-0.015625-0.0625-0.066406-0.10937-0.13281-0.12109-0.089844-0.011719-0.17188 0.046875-0.18359 0.13672l-2.7891 17.715-2.9844-16.23c-0.011718-0.0625-0.054687-0.11328-0.11719-0.12891-0.085937-0.023437-0.17578 0.03125-0.19922 0.11719l-2.793 10.793-1.6289-7.2383c-0.011719-0.050781-0.046875-0.097656-0.10156-0.11719-0.082031-0.03125-0.17578 0.011718-0.20703 0.09375l-1.5625 4.1641-1.4805-9.0664c-0.011719-0.066406-0.0625-0.12109-0.13672-0.13281-0.089844-0.011719-0.17188 0.046874-0.18359 0.13672l-2.4219 15.641-3.1797-16.828c-0.011719-0.054687-0.050782-0.10547-0.10938-0.125-0.085938-0.027344-0.17578 0.015625-0.20312 0.10156l-2.1133 6.2695-1.4844-5.543-0.55469-2.2383h-3.9766c-0.35547 0-0.64063-0.28516-0.64063-0.64062s0.28516-0.64062 0.64063-0.64062h78.492c0.35547 0 0.64062 0.28516 0.64062 0.64062zm-79.156-2.1953h78.492c0.35547 0 0.64062-0.28516 0.64062-0.64062s-0.28516-0.64062-0.64062-0.64062h-4.0039l-1.3711-4.625-1.7773 1.6016c-0.015625 0.015625-0.035156 0.027343-0.054687 0.035156-0.082032 0.03125-0.17578-0.011719-0.21094-0.09375l-1.5391-4.0469-1.2461 1.8789c-0.015625 0.027344-0.042969 0.046875-0.074219 0.058594-0.082031 0.035156-0.17578-0.003906-0.21094-0.085938l-0.96484-2.2891-2.3867 2.9414c-0.023437 0.03125-0.054687 0.054688-0.09375 0.0625-0.085937 0.019532-0.17578-0.035156-0.19531-0.12109l-3.0469-12.945-3.3438 10.969c-0.007813 0.035156-0.027344 0.066406-0.058594 0.089844-0.070312 0.054687-0.17188 0.042968-0.22656-0.027344l-1.4023-1.7812-1.4453 2.6445c-0.011719 0.023438-0.03125 0.046875-0.054687 0.066407-0.074219 0.050781-0.17578 0.03125-0.22656-0.042969l-1.2656-1.8555-1.8438 3.5039c-0.019531 0.046875-0.0625 0.078125-0.11719 0.089844-0.089844 0.015625-0.17188-0.039062-0.19141-0.12891l-3.6133-18.434-2.9727 18.82c-0.007813 0.054688-0.042969 0.10547-0.097656 0.12891-0.082031 0.035156-0.17578-0.003907-0.21094-0.089844l-2.9883-7.2344-2.1133 2.2695c-0.015625 0.019531-0.039063 0.039063-0.066407 0.046875-0.082031 0.03125-0.17578-0.011718-0.21094-0.09375l-1.3008-3.4102-1.918 5.5508c-0.011719 0.035157-0.035156 0.066407-0.066406 0.085938-0.074219 0.046875-0.17578 0.027343-0.22266-0.050781l-1.7656-2.7695-1.5195 4.5859c-0.011718 0.039062-0.039062 0.074218-0.078125 0.09375-0.078125 0.039062-0.17578 0.007812-0.21875-0.070313l-1.7344-3.3555-1.4883 5.4258c-0.015625 0.0625-0.066406 0.10938-0.13281 0.12109-0.089843 0.011718-0.17187-0.046876-0.18359-0.13672l-2.7891-17.715-2.9844 16.23c-0.011719 0.0625-0.054687 0.11328-0.11719 0.12891-0.085938 0.023438-0.17578-0.03125-0.19922-0.11719l-2.793-10.793-1.6289 7.2383c-0.011719 0.050781-0.046875 0.097656-0.10156 0.11719-0.082032 0.03125-0.17578-0.011718-0.20703-0.09375l-1.5625-4.1641-1.4805 9.0664c-0.011719 0.066406-0.0625 0.12109-0.13672 0.13281-0.089844 0.011719-0.17188-0.046875-0.18359-0.13672l-2.4219-15.641-3.1797 16.828c-0.011718 0.054688-0.050781 0.10547-0.10937 0.125-0.085938 0.027344-0.17578-0.015625-0.20313-0.10156l-2.1133-6.2695c-0.69531 2.6016-1.375 5.1797-2.0391 7.7812h-3.9805c-0.35547 0-0.64062 0.28516-0.64062 0.64062s0.28516 0.64062 0.64062 0.64062z"/>
<text x="0.0" y="117.5" font-size="5.0" font-weight="bold" font-family="Arbeit Regular, Helvetica, Arial-Unicode, Arial, Sans-serif" fill="#000000">Created by Arfan Haq</text><text x="0.0" y="122.5" font-size="5.0" font-weight="bold" font-family="Arbeit Regular, Helvetica, Arial-Unicode, Arial, Sans-serif" fill="#000000">from Noun Project</text></svg>