<svg xmlns="http://www.w3.org/2000/svg" version="1.1" viewBox="-5.0 -10.0 110.0 135.0">
 <g>
  <path d="m91.668 78.125c-1.707 0-3.125-1.418-3.125-3.125v-50c0-1.707 1.418-3.125 3.125-3.125s3.125 1.418 3.125 3.125v50c0 1.707-1.418 3.125-3.125 3.125z"/>
  <path d="m58.332 94.793c-1.707 0-3.125-1.418-3.125-3.125v-83.336c0-1.707 1.418-3.125 3.125-3.125s3.125 1.418 3.125 3.125v83.332c0 1.707-1.418 3.125-3.125 3.125z"/>
  <path d="m41.668 78.125c-1.707 0-3.125-1.418-3.125-3.125v-50c0-1.707 1.418-3.125 3.125-3.125s3.125 1.418 3.125 3.125v50c0 1.707-1.418 3.125-3.125 3.125z"/>
  <path d="m25 67.707c-1.707 0-3.125-1.418-3.125-3.125v-29.168c0-1.707 1.418-3.125 3.125-3.125s3.125 1.418 3.125 3.125v29.168c0 1.707-1.418 3.125-3.125 3.125z"/>
  <path d="m8.332 61.457c-1.707 0-3.125-1.418-3.125-3.125v-16.668c0-1.707 1.418-3.125 3.125-3.125s3.125 1.418 3.125 3.125v16.668c0 1.707-1.418 3.125-3.125 3.125z"/>
  <path d="m75 67.707c-1.707 0-3.125-1.418-3.125-3.125v-29.168c0-1.707 1.418-3.125 3.125-3.125s3.125 1.418 3.125 3.125v29.168c0 1.707-1.418 3.125-3.125 3.125z"/>
 </g>
<text x="0.0" y="117.5" font-size="5.0" font-weight="bold" font-family="Arbeit Regular, Helvetica, Arial-Unicode, Arial, Sans-serif" fill="#000000">Created by Rolas Design</text><text x="0.0" y="122.5" font-size="5.0" font-weight="bold" font-family="Arbeit Regular, Helvetica, Arial-Unicode, Arial, Sans-serif" fill="#000000">from Noun Project</text></svg>